<?xml version="1.0" encoding="UTF-8"?>
<svg id="Lag_1" data-name="Lag 1" xmlns="http://www.w3.org/2000/svg" viewBox="0 0 322.41 353.55">
  <defs>
    <style>
      .cls-1 {
        fill: #bf0203;
      }
    </style>
  </defs>
  <path class="cls-1" d="M321.61,239.05c-23.29-17.24-31.08-46.83-37.93-73.46-.95-3.7-1.91-7.4-2.91-11.09-.87-3.2-1.66-6.47-2.95-9.54-1.89-4.48-5.46-9.25-10.93-8.43-6.05.9-9.51,7.67-11.87,12.59-2.92,6.1-4.89,12.61-6.12,19.25-2.83,15.23-2.07,30.85-1.19,46.22l.95-.72c-8.31-1.27-16.62-2.53-24.93-3.8s-15.9-2.55-23.88-3.6c-6.83-.9-14.1-1.37-20.66,1.16-5.11,1.97-8.97,5.78-10.87,10.94s-1.37,11.26,3.08,14.86l.15-1.18c-6.12,2.9-12.53,7.7-14.03,14.72-1.23,5.76,1.08,12.43,6.78,14.79l-.33-1.25c-3.95,5.04-8.55,10.91-8.3,17.68.19,5.12,3.26,10.66,8.66,11.6l-.33-1.25c-5.06,5-4.05,13.38-.09,18.74,4.93,6.67,13.43,9.38,20.89,12.09,19.47,7.06,38.93,14.12,58.4,21.18,11.02,4,22.04,7.99,33.07,11.99.91.33,1.3-1.12.4-1.45-18.53-6.72-37.05-13.44-55.58-20.16-9.3-3.37-18.61-6.75-27.91-10.12-4.35-1.58-8.72-3.11-13.05-4.75-3.72-1.42-7.44-3.04-10.66-5.42-3.46-2.55-6.08-5.95-7.04-10.19-.87-3.84-.24-8.01,2.64-10.85.37-.37.24-1.15-.33-1.25-4.98-.87-7.63-6.11-7.57-10.81.08-6.1,4.29-11.4,7.87-15.97.37-.47.22-1.02-.33-1.25-5.22-2.16-6.98-8.82-5.49-13.88,1.81-6.17,7.58-10.27,13.11-12.88.41-.19.51-.89.15-1.18-3.89-3.15-4.39-8.3-2.9-12.82,1.69-5.12,5.55-8.89,10.6-10.69,6.29-2.24,13.18-1.75,19.68-.89,7.43.98,14.84,2.23,22.25,3.36,8.72,1.33,17.44,2.66,26.16,3.99.45.07.98-.19.95-.72-.77-13.51-1.45-27.15.31-40.61.86-6.57,2.35-13.09,4.73-19.29,1.18-3.07,2.59-6.06,4.22-8.92,1.5-2.63,3.38-5.32,6.07-6.84,2.43-1.38,5.33-1.28,7.59.4s3.6,4.33,4.58,6.85c1.16,2.97,1.91,6.11,2.75,9.18,1,3.69,1.95,7.39,2.9,11.1,3.56,13.83,7.14,27.76,13.1,40.79,5.84,12.78,14.02,24.67,25.4,33.1.78.57,1.53-.73.76-1.3h0Z"/>
  <path class="cls-1" d="M321.01,240.03c-7.43,13.32-12.51,27.75-17.1,42.26s-9.18,29.89-14.82,44.51c-3.34,8.68-6.92,17.27-10.49,25.85-.37.89,1.08,1.28,1.45.4,6.22-14.96,12.41-29.94,17.46-45.34,4.74-14.45,8.76-29.14,14.09-43.39,3.03-8.08,6.5-15.99,10.7-23.54.47-.84-.82-1.6-1.3-.76h0Z"/>
  <path class="cls-1" d="M256.47,259.88c-1.42,8.81,3.75,16.67,10,22.34,3.36,3.05,7.05,5.72,10.66,8.46,4.11,3.13,8.22,6.25,12.34,9.38.77.58,1.52-.72.76-1.3-3.79-2.88-7.57-5.75-11.36-8.63-3.49-2.65-7.05-5.23-10.36-8.11-6.21-5.39-11.99-13.01-10.59-21.74.15-.94-1.29-1.35-1.45-.4h0Z"/>
  <path class="cls-1" d="M255.02,292.65c.38-1.16,1.71-1.67,2.76-2.05,1.33-.48,2.68-.86,4.06-1.15,2.89-.62,5.86-.79,8.81-.57.96.07.96-1.43,0-1.5-3.38-.25-6.79.02-10.09.82-2.42.59-6.1,1.34-6.99,4.05-.3.92,1.15,1.31,1.45.4h0Z"/>
  <path class="cls-1" d="M207.14,215.27c.38,2.3,1.13,4.52,2.19,6.6.18.36.69.47,1.03.27.37-.21.45-.66.27-1.03-1-1.96-1.68-4.07-2.04-6.24-.07-.4-.56-.62-.92-.52-.42.12-.59.52-.52.92h0Z"/>
  <path class="cls-1" d="M202.73,219.4c8.71,4.03,17.48,7.94,26.12,12.11,7.32,3.53,15.23,8.34,17.87,16.54.73,2.26,1.05,4.78.23,7.06s-3.02,4.05-5.54,3.84c-.59-.05-.91.67-.65,1.13,2.34,4.13,5,9.24,2.16,13.8-2.52,4.05-7.41,5.47-11.78,6.48-.43.1-.74.72-.45,1.1,1.46,1.91,2.65,4,3.45,6.27.67,1.9,1.27,4.09.72,6.09-.61,2.25-2.72,2.97-4.81,3.31-2.55.42-5.13.67-7.69,1-.56.07-.94.58-.65,1.13.96,1.78,1.78,3.62,2.42,5.54.51,1.55,1.66,4.02-.13,5.09-1.42.85-3.42.82-5.01,1-2.12.23-4.23.45-6.35.64-8.32.76-16.66,1.22-25,1.39-.96.02-.97,1.52,0,1.5,9.66-.19,19.31-.78,28.92-1.77,2.11-.22,4.3-.31,6.37-.78,1.28-.29,2.62-.89,3.24-2.11.83-1.63-.05-3.77-.58-5.36-.68-2.04-1.55-4.01-2.57-5.9l-.65,1.13c2.93-.38,5.94-.59,8.83-1.19,2.12-.44,4.05-1.48,4.89-3.57s.43-4.59-.23-6.72c-.83-2.7-2.16-5.21-3.87-7.45l-.45,1.1c4.88-1.13,10.22-2.85,12.87-7.48,2.87-5.02.21-10.49-2.35-15l-.65,1.13c4.23.35,7.13-3.46,7.48-7.34.38-4.31-1.65-8.64-4.24-11.97-5.94-7.65-15.6-11.21-24.11-15.15-5.68-2.63-11.37-5.26-17.05-7.89-.87-.4-1.63.89-.76,1.3h0Z"/>
  <path class="cls-1" d="M178.4,236.97c18.87,7.49,37.99,14.35,57.32,20.58.92.3,1.32-1.15.4-1.45-19.33-6.22-38.44-13.09-57.32-20.58-.9-.36-1.29,1.09-.4,1.45h0Z"/>
  <path class="cls-1" d="M181.32,264.89c15.43,3.62,30.65,8.09,45.59,13.38.91.32,1.3-1.13.4-1.45-14.94-5.29-30.16-9.75-45.59-13.38-.94-.22-1.34,1.23-.4,1.45h0Z"/>
  <path class="cls-1" d="M170.94,290.47c14.97-.72,30,2.12,43.66,8.31.87.4,1.64-.9.76-1.3-13.9-6.3-29.17-9.25-44.41-8.51-.96.05-.97,1.55,0,1.5h0Z"/>
  <path class="cls-1" d="M179.81,18.56c4.25-3.96,3.5-11.35-1.07-14.75-5.24-3.89-12.32-2.06-16.44,2.49-2.59,2.87-4.39,6.35-7.05,9.16l1.25.73c.81-4.8-1.68-9.59-5.78-12.11-4.65-2.87-10.15-2.49-15.16-.96-1.55.47-3.18.97-4.81.69-1.49-.26-2.81-1.06-4.12-1.75-2.27-1.2-4.66-1.96-7.25-2.05-2.44-.09-4.9.39-7.13,1.38-1.09.48-2.1,1.09-3.05,1.81-1.1.84-2.13,1.94-3.47,2.39-1.54.52-3.09-.21-4.52-.73s-2.78-.98-4.2-1.35c-2.69-.7-5.54-1.05-8.28-.47s-4.8,2.24-7.02,3.8c-1.06.74-2.16,1.46-3.41,1.85-1.58.5-3.24.43-4.86.25-2.73-.31-5.37-.84-8.12-.37-2.12.36-4.15,1.26-5.93,2.46-3.92,2.65-6.8,6.61-9.2,10.62-2.86,4.79-5.26,9.88-7.78,14.86-2.83,5.58-5.61,11.18-8.28,16.83-5.18,10.97-9.93,22.17-13.67,33.72-1.88,5.82-3.5,11.72-4.77,17.7-1.19,5.6-1.83,11.26-2.78,16.9-.83,4.94-2.16,10.2-5.87,13.82-1.71,1.67-3.9,2.83-5.44,4.69s-1.95,4.22-1.33,6.58c.78,2.96,2.58,5.71,3.98,8.41,1.58,3.03,3.16,6.05,4.74,9.08,3.08,5.9,6.17,11.81,9.25,17.71,6.24,11.96,12.49,23.91,18.73,35.87,1.54,2.95,3.08,5.9,4.63,8.86.24.46.83.45,1.18.15,12.63-10.82,25.26-21.64,37.89-32.46,3.58-3.07,7.16-6.14,10.75-9.2.73-.63-.33-1.69-1.06-1.06-12.63,10.82-25.26,21.64-37.89,32.46-3.58,3.07-7.16,6.14-10.75,9.2l1.18.15c-12.03-23.03-24.05-46.05-36.08-69.08-1.49-2.85-3.15-5.66-4.43-8.61s-1.3-5.51.98-7.76c1.73-1.7,3.87-2.89,5.49-4.72,1.45-1.64,2.54-3.54,3.36-5.56,1.85-4.54,2.36-9.49,3.03-14.3.81-5.84,1.98-11.63,3.44-17.34,5.92-23.09,16.49-44.64,27.3-65.76,2.33-4.56,4.54-9.23,7.47-13.45,2.58-3.72,5.92-7.4,10.34-8.85,2.61-.86,5.19-.66,7.86-.29s5.38.68,7.95-.41c2.31-.98,4.12-2.75,6.26-4.02,2.62-1.55,5.63-1.79,8.59-1.29,2.79.47,5.32,1.59,8,2.41s4.51.02,6.54-1.61,4.15-2.9,6.75-3.46,5.42-.4,7.94.53,4.46,2.62,7.05,2.97c2.81.38,5.43-.99,8.11-1.56,5.29-1.11,11.39.21,14.53,4.93,1.39,2.09,2.08,4.6,1.65,7.1-.12.69.69,1.32,1.25.73,4.78-5.05,7.65-13.42,15.83-13.33,3.44.04,6.81,1.77,8.23,5s.89,6.95-1.63,9.31c-.71.66.35,1.72,1.06,1.06h0Z"/>
  <path class="cls-1" d="M54.98,75.52c8.58,16.06,10.79,35.19,6.11,52.78-.25.93,1.2,1.33,1.45.4,3.71-13.95,3.21-28.93-1.37-42.62-1.31-3.9-2.95-7.69-4.89-11.32-.46-.85-1.75-.09-1.3.76h0Z"/>
  <path class="cls-1" d="M60.35,80c5.99-.57,12.02-.52,18.01.14.96.11.95-1.39,0-1.5-5.98-.66-12.01-.71-18.01-.14-.95.09-.96,1.59,0,1.5h0Z"/>
  <path class="cls-1" d="M154.42,17.57c.96,9.6-1.42,19.08-4.97,27.94-1.53,3.81-3.1,8.32-6.17,11.2-2.47,2.31-7.28,3.34-9.43,0-.31-.48-.99-.49-1.3,0-3.36,5.36-6.61,10.82-10.09,16.1-1.62,2.45-3.94,4.15-6.87,2.64-2.62-1.35-3.85-4.24-4.97-6.8-.19-.44-.88-.48-1.18-.15-3.24,3.57-7.77,7.92-12.89,5.1s-5.99-8.86-6.76-13.98c-.09-.61-1.12-.75-1.37-.18-1.78,4.15-6.93,3.88-10.29,2.04-3.64-1.99-7.61-5.45-8.84-9.54-1.35-4.5.71-9.29.07-13.89s-2.8-8.56-4.93-12.49c-.46-.85-1.75-.09-1.3.76,1.95,3.6,3.96,7.31,4.66,11.39s-.81,8.33-.36,12.53c.38,3.57,2.45,6.52,5.03,8.9s5.6,4.61,9.1,5.1c3.2.45,6.82-.93,8.15-4.04l-1.37-.18c.87,5.74,2.23,12.52,8.1,15.21s10.48-1.73,14.05-5.66l-1.18-.15c1.23,2.81,2.64,5.87,5.5,7.34,2.46,1.27,5.18.99,7.18-.96,1.02-.99,1.76-2.23,2.51-3.42,1.04-1.65,2.07-3.31,3.11-4.97,2.07-3.31,4.14-6.62,6.22-9.93h-1.3c1.52,2.36,4.34,3.18,7.03,2.75,3.14-.51,5.48-2.79,7.13-5.38,2.08-3.27,3.5-7.05,4.87-10.66,1.53-4.05,2.81-8.2,3.62-12.46.89-4.67,1.2-9.42.73-14.15-.09-.95-1.6-.96-1.5,0h0Z"/>
  <path class="cls-1" d="M80.23,11.52c2.89.1,5.31,1.99,6.77,4.4,1.78,2.93,2.05,6.48,2.03,9.84-.04,7.27-.48,14.55-.73,21.82-.03.97,1.47.96,1.5,0,.14-4.13.29-8.26.43-12.4s.49-8.13.23-12.17c-.39-5.85-3.48-12.76-10.23-12.99-.97-.03-.96,1.47,0,1.5h0Z"/>
  <path class="cls-1" d="M105.54,8.47c5.53,3.55,5.82,11.51,6.49,17.37.83,7.3,1.43,14.78.37,22.09-.6,4.16-1.76,8.21-3.65,11.97-.43.86.86,1.62,1.3.76,3.51-7.02,4.53-14.85,4.39-22.62-.07-4-.43-8-.88-11.98-.39-3.45-.71-6.96-1.62-10.32s-2.6-6.6-5.64-8.56c-.81-.52-1.57.77-.76,1.3h0Z"/>
  <path class="cls-1" d="M129.69,7.12c2.63,14.49,3.36,29.27,2.2,43.95-.08.96,1.42.96,1.5,0,1.17-14.81.4-29.73-2.25-44.34-.17-.95-1.62-.55-1.45.4h0Z"/>
  <path class="cls-1" d="M158.14,22.65c18.39-1.14,36.78-2.28,55.2-2.67,9.28-.19,18.57-.19,27.86.1,2.24.07,4.48.16,6.71.26s4.3.11,6.39.57c4.4.99,6.34,4.83,8.37,8.46,4.68,8.36,8.31,17.27,10.88,26.5.26.93,1.71.53,1.45-.4-2.32-8.33-5.5-16.4-9.51-24.06-1.01-1.93-2.08-3.85-3.2-5.72-.95-1.58-2-3.16-3.46-4.33-3.1-2.49-7.39-2.37-11.16-2.55-19.06-.89-38.16-.45-57.21.46-10.78.52-21.55,1.18-32.32,1.85-.96.06-.97,1.56,0,1.5h0Z"/>
  <path class="cls-1" d="M146.84,58.04c32.44,1.64,64.89-.31,97.32-1.27,8.95-.26,17.97-.42,26.84,1.05.94.16,1.35-1.29.4-1.45-7.88-1.3-15.87-1.39-23.84-1.2-8.08.19-16.16.51-24.24.8-16.22.59-32.44,1.18-48.68,1.2-9.27,0-18.54-.17-27.8-.64-.96-.05-.96,1.45,0,1.5h0Z"/>
  <path class="cls-1" d="M74.55,63.68c7.14,19.06,12.17,38.85,15.54,58.91,3.42,20.31,5.15,40.88,5.84,61.45.38,11.53.43,23.08.26,34.61-.01.97,1.49.97,1.5,0,.32-20.6-.09-41.23-1.83-61.77-1.72-20.36-4.73-40.65-9.64-60.5-2.78-11.22-6.16-22.29-10.22-33.12-.34-.9-1.79-.51-1.45.4h0Z"/>
  <path class="cls-1" d="M96.29,270.71c.86-18.31,1.72-36.61,2.58-54.92.05-.97-1.45-.96-1.5,0-.86,18.31-1.72,36.61-2.58,54.92-.05.97,1.45.96,1.5,0h0Z"/>
  <path class="cls-1" d="M250.44,59.33c4.49,19.81,7.53,39.93,9.06,60.18.43,5.75.74,11.5.94,17.26.03.96,1.53.97,1.5,0-.69-20.35-2.87-40.64-6.53-60.67-1.05-5.75-2.23-11.47-3.52-17.17-.21-.94-1.66-.54-1.45.4h0Z"/>
  <path class="cls-1" d="M111.63,87.89c20.39.35,40.78.04,61.14-.93.96-.05.97-1.55,0-1.5-20.37.97-40.76,1.28-61.14.93-.97-.02-.97,1.48,0,1.5h0Z"/>
  <path class="cls-1" d="M112.07,100.48c20.82.71,41.67.28,62.45-1.26.96-.07.96-1.57,0-1.5-20.78,1.54-41.63,1.96-62.45,1.26-.97-.03-.96,1.47,0,1.5h0Z"/>
  <path class="cls-1" d="M112.07,127.44c32.62.72,65.26.87,97.88.44,9.16-.12,18.31-.29,27.46-.5.96-.02.97-1.52,0-1.5-32.62.75-65.25.92-97.88.53-9.16-.11-18.31-.27-27.46-.47-.97-.02-.97,1.48,0,1.5h0Z"/>
  <path class="cls-1" d="M111.63,153.04c12.38.09,24.77-.15,37.13-.73.96-.04.97-1.55,0-1.5-12.37.58-24.75.82-37.13.73-.97,0-.97,1.49,0,1.5h0Z"/>
  <path class="cls-1" d="M112.07,177.36c32.07-.34,64.13-.91,96.19-1.71,9.14-.23,18.27-.47,27.41-.74.96-.03.97-1.53,0-1.5-32.06.93-64.12,1.63-96.18,2.11-9.14.13-18.28.25-27.41.35-.96.01-.97,1.51,0,1.5h0Z"/>
  <path class="cls-1" d="M113.86,192.03c.36,7.57.72,15.14,1.08,22.7.05.96,1.55.97,1.5,0-.36-7.57-.72-15.14-1.08-22.7-.05-.96-1.55-.97-1.5,0h0Z"/>
  <path class="cls-1" d="M116,191.87c8.58.51,17.18.66,25.77.44.96-.02.97-1.52,0-1.5-8.59.22-17.19.07-25.77-.44-.96-.06-.96,1.44,0,1.5h0Z"/>
  <path class="cls-1" d="M116.44,216.07c8.88-.2,17.76-.39,26.64-.59.96-.02.97-1.52,0-1.5-8.88.2-17.76.39-26.64.59-.96.02-.97,1.52,0,1.5h0Z"/>
  <path class="cls-1" d="M140.69,191.86c.19,7.56,1,15.09,2.41,22.52.18.95,1.63.55,1.45-.4-1.38-7.3-2.17-14.7-2.36-22.13-.02-.96-1.52-.97-1.5,0h0Z"/>
  <path class="cls-1" d="M119.8,205.21c2.58,1,4.98,2.36,7.17,4.04.25.19.71.11.91-.12,12.67-13.98,24.82-28.44,36.4-43.34.59-.75-.47-1.82-1.06-1.06-11.58,14.9-23.73,29.36-36.4,43.34l.91-.12c-2.31-1.76-4.82-3.15-7.53-4.19-.9-.35-1.29,1.1-.4,1.45h0Z"/>
  <path class="cls-1" d="M94.46,270.21c-.23,8.52-.46,17.05-.68,25.57-.03.97,1.47.96,1.5,0,.23-8.52.46-17.05.68-25.57.03-.97-1.47-.96-1.5,0h0Z"/>
  <path class="cls-1" d="M94.38,296.43c16.86.16,33.72.64,50.56,1.45,4.79.23,9.58.48,14.36.76.96.06.96-1.44,0-1.5-16.83-.98-33.68-1.65-50.54-1.99-4.79-.1-9.59-.17-14.38-.21-.97,0-.97,1.49,0,1.5h0Z"/>
</svg>