<?xml version="1.0" encoding="UTF-8"?>
<svg xmlns="http://www.w3.org/2000/svg" xmlns:xlink="http://www.w3.org/1999/xlink" width="127px" height="150px" viewBox="0 0 127 149" version="1.1">
<g id="surface1">
<path style=" stroke:none;fill-rule:nonzero;fill:rgb(74.901962%,0.784314%,1.176471%);fill-opacity:1;" d="M 64.816406 47.878906 C 60.125 44.429688 58.554688 38.503906 57.171875 33.171875 C 56.980469 32.429688 56.789062 31.691406 56.585938 30.953125 C 56.410156 30.308594 56.253906 29.65625 55.992188 29.042969 C 55.613281 28.144531 54.890625 27.1875 53.789062 27.351562 C 52.570312 27.535156 51.871094 28.890625 51.398438 29.875 C 50.808594 31.09375 50.410156 32.398438 50.164062 33.726562 C 49.59375 36.777344 49.746094 39.90625 49.925781 42.984375 L 50.117188 42.839844 C 48.441406 42.585938 46.765625 42.332031 45.089844 42.078125 C 43.488281 41.835938 41.886719 41.566406 40.277344 41.355469 C 38.902344 41.175781 37.4375 41.082031 36.113281 41.589844 C 35.085938 41.984375 34.304688 42.746094 33.921875 43.78125 C 33.539062 44.8125 33.648438 46.035156 34.542969 46.753906 L 34.574219 46.519531 C 33.339844 47.097656 32.050781 48.058594 31.746094 49.464844 C 31.5 50.621094 31.964844 51.953125 33.113281 52.425781 L 33.046875 52.175781 C 32.25 53.1875 31.324219 54.363281 31.375 55.71875 C 31.414062 56.742188 32.03125 57.851562 33.121094 58.039062 L 33.054688 57.789062 C 32.03125 58.789062 32.238281 60.46875 33.035156 61.542969 C 34.027344 62.878906 35.742188 63.417969 37.246094 63.960938 C 41.167969 65.375 45.089844 66.789062 49.015625 68.203125 C 51.234375 69.003906 53.457031 69.804688 55.679688 70.605469 C 55.863281 70.667969 55.941406 70.378906 55.761719 70.3125 C 52.027344 68.96875 48.292969 67.621094 44.558594 66.277344 C 42.683594 65.601562 40.808594 64.925781 38.933594 64.25 C 38.058594 63.933594 37.175781 63.628906 36.304688 63.300781 C 35.554688 63.015625 34.804688 62.691406 34.15625 62.214844 C 33.457031 61.703125 32.929688 61.023438 32.738281 60.175781 C 32.5625 59.40625 32.6875 58.570312 33.269531 58 C 33.34375 57.925781 33.316406 57.769531 33.203125 57.75 C 32.199219 57.578125 31.664062 56.527344 31.675781 55.585938 C 31.691406 54.367188 32.542969 53.304688 33.261719 52.390625 C 33.335938 52.296875 33.308594 52.183594 33.195312 52.140625 C 32.144531 51.707031 31.789062 50.371094 32.089844 49.359375 C 32.453125 48.125 33.617188 47.304688 34.730469 46.78125 C 34.8125 46.742188 34.835938 46.601562 34.761719 46.542969 C 33.976562 45.914062 33.878906 44.882812 34.175781 43.976562 C 34.519531 42.953125 35.296875 42.199219 36.3125 41.835938 C 37.582031 41.390625 38.96875 41.488281 40.28125 41.660156 C 41.777344 41.855469 43.269531 42.105469 44.765625 42.332031 C 46.523438 42.597656 48.28125 42.863281 50.035156 43.128906 C 50.128906 43.144531 50.234375 43.09375 50.226562 42.988281 C 50.074219 40.28125 49.9375 37.550781 50.289062 34.855469 C 50.464844 33.539062 50.765625 32.234375 51.246094 30.992188 C 51.480469 30.378906 51.765625 29.78125 52.09375 29.207031 C 52.398438 28.679688 52.777344 28.140625 53.316406 27.835938 C 53.808594 27.5625 54.390625 27.582031 54.847656 27.917969 C 55.304688 28.253906 55.574219 28.785156 55.769531 29.289062 C 56.003906 29.882812 56.15625 30.511719 56.324219 31.128906 C 56.527344 31.867188 56.71875 32.605469 56.910156 33.351562 C 57.628906 36.117188 58.347656 38.90625 59.550781 41.515625 C 60.726562 44.074219 62.375 46.457031 64.667969 48.144531 C 64.824219 48.257812 64.976562 48 64.820312 47.882812 Z M 64.816406 47.878906 "/>
<path style=" stroke:none;fill-rule:nonzero;fill:rgb(74.901962%,0.784314%,1.176471%);fill-opacity:1;" d="M 64.695312 48.078125 C 63.199219 50.742188 62.175781 53.632812 61.25 56.539062 C 60.300781 59.527344 59.402344 62.523438 58.265625 65.449219 C 57.589844 67.1875 56.871094 68.90625 56.148438 70.625 C 56.074219 70.804688 56.367188 70.882812 56.441406 70.707031 C 57.695312 67.710938 58.941406 64.710938 59.960938 61.628906 C 60.917969 58.734375 61.726562 55.792969 62.800781 52.941406 C 63.410156 51.320312 64.109375 49.738281 64.957031 48.226562 C 65.050781 48.058594 64.792969 47.90625 64.695312 48.074219 Z M 64.695312 48.078125 "/>
<path style=" stroke:none;fill-rule:nonzero;fill:rgb(74.901962%,0.784314%,1.176471%);fill-opacity:1;" d="M 51.691406 52.050781 C 51.402344 53.816406 52.445312 55.386719 53.703125 56.523438 C 54.382812 57.132812 55.125 57.667969 55.851562 58.21875 C 56.683594 58.84375 57.511719 59.46875 58.339844 60.097656 C 58.496094 60.210938 58.648438 59.953125 58.492188 59.835938 C 57.730469 59.257812 56.96875 58.683594 56.203125 58.109375 C 55.5 57.578125 54.785156 57.058594 54.117188 56.484375 C 52.863281 55.40625 51.699219 53.878906 51.980469 52.132812 C 52.011719 51.941406 51.722656 51.859375 51.691406 52.050781 Z M 51.691406 52.050781 "/>
<path style=" stroke:none;fill-rule:nonzero;fill:rgb(74.901962%,0.784314%,1.176471%);fill-opacity:1;" d="M 51.398438 58.613281 C 51.472656 58.378906 51.742188 58.277344 51.953125 58.203125 C 52.222656 58.105469 52.492188 58.03125 52.773438 57.972656 C 53.355469 57.847656 53.953125 57.8125 54.546875 57.855469 C 54.742188 57.871094 54.742188 57.570312 54.546875 57.558594 C 53.867188 57.507812 53.179688 57.5625 52.515625 57.722656 C 52.027344 57.839844 51.285156 57.988281 51.105469 58.53125 C 51.042969 58.714844 51.335938 58.792969 51.398438 58.613281 Z M 51.398438 58.613281 "/>
<path style=" stroke:none;fill-rule:nonzero;fill:rgb(74.901962%,0.784314%,1.176471%);fill-opacity:1;" d="M 41.746094 43.117188 C 41.824219 43.578125 41.976562 44.023438 42.1875 44.441406 C 42.226562 44.511719 42.328125 44.535156 42.394531 44.496094 C 42.472656 44.453125 42.488281 44.363281 42.449219 44.289062 C 42.25 43.894531 42.113281 43.472656 42.039062 43.039062 C 42.027344 42.957031 41.925781 42.914062 41.855469 42.933594 C 41.769531 42.957031 41.734375 43.039062 41.75 43.117188 Z M 41.746094 43.117188 "/>
<path style=" stroke:none;fill-rule:nonzero;fill:rgb(74.901962%,0.784314%,1.176471%);fill-opacity:1;" d="M 40.859375 43.945312 C 42.613281 44.753906 44.382812 45.535156 46.121094 46.371094 C 47.597656 47.078125 49.191406 48.039062 49.722656 49.683594 C 49.871094 50.132812 49.9375 50.640625 49.769531 51.097656 C 49.605469 51.550781 49.164062 51.90625 48.65625 51.863281 C 48.535156 51.855469 48.472656 52 48.523438 52.089844 C 48.996094 52.917969 49.53125 53.941406 48.957031 54.855469 C 48.449219 55.664062 47.464844 55.949219 46.585938 56.152344 C 46.496094 56.171875 46.433594 56.296875 46.492188 56.371094 C 46.789062 56.753906 47.027344 57.171875 47.1875 57.628906 C 47.324219 58.007812 47.445312 58.445312 47.335938 58.847656 C 47.210938 59.296875 46.785156 59.441406 46.363281 59.507812 C 45.851562 59.59375 45.332031 59.644531 44.816406 59.710938 C 44.703125 59.722656 44.625 59.824219 44.683594 59.9375 C 44.878906 60.292969 45.042969 60.660156 45.171875 61.046875 C 45.273438 61.355469 45.507812 61.851562 45.144531 62.0625 C 44.859375 62.234375 44.457031 62.226562 44.136719 62.265625 C 43.707031 62.308594 43.285156 62.355469 42.855469 62.390625 C 41.179688 62.542969 39.5 62.636719 37.816406 62.671875 C 37.625 62.675781 37.621094 62.976562 37.816406 62.972656 C 39.765625 62.933594 41.710938 62.816406 43.644531 62.617188 C 44.070312 62.574219 44.511719 62.554688 44.929688 62.460938 C 45.1875 62.402344 45.457031 62.28125 45.582031 62.039062 C 45.75 61.710938 45.574219 61.28125 45.464844 60.964844 C 45.328125 60.554688 45.152344 60.160156 44.949219 59.785156 L 44.816406 60.011719 C 45.40625 59.933594 46.015625 59.890625 46.597656 59.773438 C 47.023438 59.683594 47.414062 59.476562 47.582031 59.058594 C 47.75 58.636719 47.667969 58.136719 47.535156 57.710938 C 47.367188 57.171875 47.101562 56.667969 46.753906 56.21875 L 46.664062 56.441406 C 47.648438 56.214844 48.726562 55.867188 49.257812 54.941406 C 49.835938 53.9375 49.300781 52.839844 48.785156 51.9375 L 48.65625 52.164062 C 49.507812 52.234375 50.089844 51.472656 50.160156 50.695312 C 50.238281 49.832031 49.828125 48.964844 49.308594 48.296875 C 48.109375 46.765625 46.164062 46.054688 44.449219 45.265625 C 43.304688 44.738281 42.15625 44.210938 41.011719 43.683594 C 40.835938 43.605469 40.683594 43.863281 40.859375 43.945312 Z M 40.859375 43.945312 "/>
<path style=" stroke:none;fill-rule:nonzero;fill:rgb(74.901962%,0.784314%,1.176471%);fill-opacity:1;" d="M 35.957031 47.464844 C 39.757812 48.964844 43.613281 50.335938 47.507812 51.585938 C 47.691406 51.644531 47.773438 51.355469 47.589844 51.292969 C 43.691406 50.046875 39.839844 48.671875 36.035156 47.171875 C 35.855469 47.101562 35.777344 47.390625 35.957031 47.464844 Z M 35.957031 47.464844 "/>
<path style=" stroke:none;fill-rule:nonzero;fill:rgb(74.901962%,0.784314%,1.176471%);fill-opacity:1;" d="M 36.542969 53.054688 C 39.652344 53.777344 42.722656 54.671875 45.730469 55.734375 C 45.914062 55.796875 45.992188 55.507812 45.8125 55.441406 C 42.800781 54.382812 39.734375 53.492188 36.625 52.761719 C 36.433594 52.71875 36.355469 53.011719 36.542969 53.054688 Z M 36.542969 53.054688 "/>
<path style=" stroke:none;fill-rule:nonzero;fill:rgb(74.901962%,0.784314%,1.176471%);fill-opacity:1;" d="M 34.453125 58.175781 C 37.46875 58.03125 40.496094 58.601562 43.25 59.839844 C 43.425781 59.917969 43.582031 59.660156 43.402344 59.578125 C 40.601562 58.316406 37.523438 57.726562 34.453125 57.875 C 34.261719 57.886719 34.257812 58.1875 34.453125 58.175781 Z M 34.453125 58.175781 "/>
<path style=" stroke:none;fill-rule:nonzero;fill:rgb(74.901962%,0.784314%,1.176471%);fill-opacity:1;" d="M 36.238281 3.734375 C 37.097656 2.941406 36.945312 1.460938 36.023438 0.78125 C 34.96875 0 33.539062 0.367188 32.710938 1.277344 C 32.1875 1.851562 31.824219 2.550781 31.289062 3.113281 L 31.542969 3.257812 C 31.703125 2.296875 31.203125 1.339844 30.375 0.832031 C 29.4375 0.257812 28.332031 0.335938 27.320312 0.640625 C 27.007812 0.734375 26.679688 0.835938 26.351562 0.78125 C 26.050781 0.726562 25.785156 0.566406 25.519531 0.429688 C 25.0625 0.1875 24.582031 0.0351562 24.058594 0.0195312 C 23.570312 0 23.074219 0.0976562 22.625 0.292969 C 22.402344 0.390625 22.199219 0.511719 22.007812 0.65625 C 21.785156 0.824219 21.578125 1.046875 21.308594 1.136719 C 21 1.238281 20.6875 1.09375 20.398438 0.988281 C 20.109375 0.886719 19.835938 0.792969 19.550781 0.71875 C 19.007812 0.578125 18.433594 0.507812 17.882812 0.625 C 17.332031 0.742188 16.914062 1.074219 16.46875 1.386719 C 16.253906 1.535156 16.03125 1.679688 15.78125 1.757812 C 15.460938 1.855469 15.128906 1.84375 14.800781 1.804688 C 14.25 1.746094 13.71875 1.636719 13.164062 1.734375 C 12.738281 1.804688 12.328125 1.984375 11.96875 2.226562 C 11.179688 2.753906 10.597656 3.546875 10.117188 4.351562 C 9.539062 5.308594 9.054688 6.328125 8.546875 7.328125 C 7.976562 8.445312 7.417969 9.566406 6.878906 10.695312 C 5.835938 12.894531 4.878906 15.136719 4.125 17.449219 C 3.746094 18.613281 3.417969 19.792969 3.164062 20.992188 C 2.921875 22.113281 2.792969 23.246094 2.601562 24.375 C 2.433594 25.363281 2.167969 26.417969 1.417969 27.144531 C 1.074219 27.476562 0.632812 27.710938 0.324219 28.082031 C 0.0117188 28.453125 -0.0703125 28.925781 0.0546875 29.398438 C 0.210938 29.992188 0.574219 30.542969 0.855469 31.082031 C 1.175781 31.691406 1.492188 32.292969 1.8125 32.902344 C 2.433594 34.082031 3.054688 35.265625 3.675781 36.449219 C 4.933594 38.84375 6.195312 41.234375 7.449219 43.628906 C 7.761719 44.21875 8.070312 44.8125 8.382812 45.402344 C 8.433594 45.496094 8.550781 45.492188 8.621094 45.433594 C 11.167969 43.265625 13.714844 41.101562 16.257812 38.933594 C 16.980469 38.320312 17.703125 37.703125 18.425781 37.09375 C 18.570312 36.964844 18.359375 36.753906 18.210938 36.878906 C 15.664062 39.046875 13.121094 41.210938 10.574219 43.378906 C 9.851562 43.992188 9.132812 44.609375 8.410156 45.222656 L 8.644531 45.25 C 6.222656 40.640625 3.800781 36.03125 1.375 31.417969 C 1.074219 30.847656 0.738281 30.285156 0.480469 29.695312 C 0.222656 29.105469 0.21875 28.59375 0.679688 28.140625 C 1.027344 27.800781 1.460938 27.5625 1.785156 27.195312 C 2.078125 26.867188 2.296875 26.488281 2.460938 26.082031 C 2.835938 25.175781 2.9375 24.183594 3.074219 23.21875 C 3.238281 22.050781 3.472656 20.890625 3.765625 19.75 C 4.960938 15.125 7.089844 10.8125 9.269531 6.582031 C 9.738281 5.667969 10.183594 4.734375 10.773438 3.890625 C 11.292969 3.144531 11.96875 2.40625 12.859375 2.117188 C 13.382812 1.945312 13.90625 1.984375 14.441406 2.058594 C 14.980469 2.132812 15.527344 2.195312 16.042969 1.976562 C 16.511719 1.78125 16.875 1.425781 17.304688 1.171875 C 17.835938 0.863281 18.441406 0.8125 19.039062 0.914062 C 19.601562 1.007812 20.109375 1.230469 20.648438 1.394531 C 21.191406 1.558594 21.558594 1.398438 21.96875 1.074219 C 22.378906 0.746094 22.804688 0.492188 23.328125 0.382812 C 23.851562 0.269531 24.421875 0.300781 24.929688 0.488281 C 25.4375 0.671875 25.828125 1.011719 26.351562 1.082031 C 26.914062 1.15625 27.445312 0.882812 27.984375 0.769531 C 29.050781 0.546875 30.28125 0.8125 30.914062 1.757812 C 31.191406 2.175781 31.332031 2.675781 31.246094 3.179688 C 31.222656 3.316406 31.382812 3.441406 31.496094 3.324219 C 32.460938 2.3125 33.039062 0.636719 34.6875 0.65625 C 35.378906 0.664062 36.058594 1.007812 36.347656 1.65625 C 36.632812 2.304688 36.527344 3.046875 36.019531 3.519531 C 35.875 3.652344 36.089844 3.863281 36.230469 3.734375 Z M 36.238281 3.734375 "/>
<path style=" stroke:none;fill-rule:nonzero;fill:rgb(74.901962%,0.784314%,1.176471%);fill-opacity:1;" d="M 11.082031 15.136719 C 12.808594 18.351562 13.253906 22.183594 12.3125 25.707031 C 12.261719 25.890625 12.554688 25.972656 12.605469 25.785156 C 13.351562 22.992188 13.25 19.992188 12.328125 17.25 C 12.0625 16.472656 11.734375 15.710938 11.34375 14.984375 C 11.25 14.816406 10.988281 14.96875 11.082031 15.136719 Z M 11.082031 15.136719 "/>
<path style=" stroke:none;fill-rule:nonzero;fill:rgb(74.901962%,0.784314%,1.176471%);fill-opacity:1;" d="M 12.164062 16.035156 C 13.371094 15.921875 14.585938 15.929688 15.792969 16.0625 C 15.988281 16.085938 15.984375 15.785156 15.792969 15.761719 C 14.585938 15.628906 13.371094 15.621094 12.164062 15.734375 C 11.972656 15.753906 11.96875 16.050781 12.164062 16.035156 Z M 12.164062 16.035156 "/>
<path style=" stroke:none;fill-rule:nonzero;fill:rgb(74.901962%,0.784314%,1.176471%);fill-opacity:1;" d="M 31.121094 3.535156 C 31.316406 5.457031 30.835938 7.355469 30.121094 9.128906 C 29.8125 9.890625 29.496094 10.792969 28.878906 11.371094 C 28.378906 11.832031 27.410156 12.039062 26.976562 11.371094 C 26.914062 11.273438 26.777344 11.273438 26.714844 11.371094 C 26.039062 12.445312 25.382812 13.539062 24.679688 14.59375 C 24.355469 15.085938 23.886719 15.425781 23.296875 15.125 C 22.769531 14.851562 22.519531 14.273438 22.292969 13.761719 C 22.257812 13.675781 22.117188 13.664062 22.058594 13.730469 C 21.402344 14.445312 20.492188 15.316406 19.457031 14.753906 C 18.425781 14.1875 18.25 12.980469 18.097656 11.953125 C 18.078125 11.832031 17.871094 11.804688 17.820312 11.917969 C 17.460938 12.75 16.421875 12.695312 15.746094 12.328125 C 15.011719 11.929688 14.210938 11.234375 13.964844 10.417969 C 13.691406 9.515625 14.109375 8.554688 13.980469 7.636719 C 13.851562 6.714844 13.414062 5.921875 12.984375 5.132812 C 12.894531 4.964844 12.632812 5.117188 12.722656 5.285156 C 13.117188 6.007812 13.523438 6.75 13.664062 7.566406 C 13.804688 8.382812 13.5 9.234375 13.589844 10.074219 C 13.667969 10.789062 14.082031 11.382812 14.605469 11.859375 C 15.125 12.335938 15.730469 12.78125 16.4375 12.878906 C 17.082031 12.96875 17.8125 12.691406 18.082031 12.070312 L 17.804688 12.035156 C 17.980469 13.183594 18.253906 14.539062 19.4375 15.078125 C 20.621094 15.617188 21.550781 14.734375 22.269531 13.945312 L 22.03125 13.917969 C 22.277344 14.480469 22.5625 15.089844 23.140625 15.386719 C 23.636719 15.640625 24.183594 15.585938 24.585938 15.195312 C 24.792969 14.996094 24.941406 14.746094 25.09375 14.507812 C 25.300781 14.179688 25.507812 13.847656 25.71875 13.515625 C 26.136719 12.851562 26.554688 12.1875 26.972656 11.527344 L 26.710938 11.527344 C 27.015625 11.996094 27.585938 12.164062 28.128906 12.074219 C 28.761719 11.972656 29.230469 11.515625 29.5625 11 C 29.984375 10.34375 30.269531 9.585938 30.546875 8.863281 C 30.855469 8.054688 31.113281 7.222656 31.273438 6.371094 C 31.453125 5.433594 31.515625 4.484375 31.421875 3.535156 C 31.40625 3.347656 31.101562 3.34375 31.121094 3.535156 Z M 31.121094 3.535156 "/>
<path style=" stroke:none;fill-rule:nonzero;fill:rgb(74.901962%,0.784314%,1.176471%);fill-opacity:1;" d="M 16.167969 2.324219 C 16.753906 2.34375 17.238281 2.722656 17.535156 3.203125 C 17.894531 3.789062 17.949219 4.5 17.941406 5.175781 C 17.933594 6.628906 17.847656 8.085938 17.796875 9.542969 C 17.789062 9.738281 18.09375 9.734375 18.097656 9.542969 C 18.125 8.714844 18.15625 7.890625 18.183594 7.058594 C 18.214844 6.230469 18.285156 5.433594 18.230469 4.625 C 18.152344 3.453125 17.53125 2.070312 16.167969 2.023438 C 15.972656 2.015625 15.976562 2.316406 16.167969 2.324219 Z M 16.167969 2.324219 "/>
<path style=" stroke:none;fill-rule:nonzero;fill:rgb(74.901962%,0.784314%,1.176471%);fill-opacity:1;" d="M 21.269531 1.710938 C 22.386719 2.421875 22.445312 4.015625 22.578125 5.191406 C 22.746094 6.652344 22.867188 8.148438 22.652344 9.613281 C 22.53125 10.445312 22.296875 11.257812 21.917969 12.011719 C 21.832031 12.183594 22.089844 12.335938 22.179688 12.164062 C 22.886719 10.757812 23.09375 9.1875 23.066406 7.632812 C 23.050781 6.832031 22.976562 6.03125 22.886719 5.234375 C 22.808594 4.542969 22.742188 3.839844 22.5625 3.167969 C 22.378906 2.496094 22.035156 1.847656 21.425781 1.453125 C 21.261719 1.351562 21.109375 1.609375 21.269531 1.714844 Z M 21.269531 1.710938 "/>
<path style=" stroke:none;fill-rule:nonzero;fill:rgb(74.901962%,0.784314%,1.176471%);fill-opacity:1;" d="M 26.136719 1.441406 C 26.667969 4.34375 26.816406 7.300781 26.582031 10.242188 C 26.566406 10.433594 26.867188 10.433594 26.882812 10.242188 C 27.121094 7.277344 26.964844 4.289062 26.429688 1.363281 C 26.394531 1.175781 26.105469 1.253906 26.136719 1.445312 Z M 26.136719 1.441406 "/>
<path style=" stroke:none;fill-rule:nonzero;fill:rgb(74.901962%,0.784314%,1.176471%);fill-opacity:1;" d="M 31.871094 4.550781 C 35.578125 4.324219 39.285156 4.09375 42.996094 4.015625 C 44.867188 3.980469 46.738281 3.980469 48.613281 4.035156 C 49.0625 4.050781 49.515625 4.070312 49.964844 4.089844 C 50.414062 4.109375 50.832031 4.109375 51.253906 4.203125 C 52.140625 4.402344 52.53125 5.171875 52.9375 5.898438 C 53.882812 7.570312 54.613281 9.355469 55.132812 11.203125 C 55.183594 11.390625 55.476562 11.308594 55.425781 11.121094 C 54.957031 9.457031 54.316406 7.839844 53.507812 6.304688 C 53.304688 5.917969 53.089844 5.535156 52.863281 5.160156 C 52.671875 4.84375 52.460938 4.527344 52.164062 4.292969 C 51.539062 3.792969 50.675781 3.820312 49.917969 3.78125 C 46.074219 3.605469 42.226562 3.691406 38.386719 3.875 C 36.214844 3.980469 34.042969 4.109375 31.871094 4.246094 C 31.679688 4.257812 31.675781 4.558594 31.871094 4.546875 Z M 31.871094 4.550781 "/>
<path style=" stroke:none;fill-rule:nonzero;fill:rgb(74.901962%,0.784314%,1.176471%);fill-opacity:1;" d="M 29.59375 11.636719 C 36.132812 11.964844 42.671875 11.574219 49.207031 11.382812 C 51.011719 11.332031 52.832031 11.300781 54.617188 11.59375 C 54.808594 11.625 54.890625 11.335938 54.699219 11.304688 C 53.109375 11.042969 51.5 11.023438 49.894531 11.0625 C 48.265625 11.101562 46.636719 11.164062 45.007812 11.222656 C 41.738281 11.339844 38.46875 11.460938 35.199219 11.464844 C 33.328125 11.464844 31.460938 11.429688 29.59375 11.335938 C 29.402344 11.324219 29.402344 11.625 29.59375 11.636719 Z M 29.59375 11.636719 "/>
<path style=" stroke:none;fill-rule:nonzero;fill:rgb(74.901962%,0.784314%,1.176471%);fill-opacity:1;" d="M 15.023438 12.765625 C 16.464844 16.582031 17.476562 20.546875 18.15625 24.5625 C 18.847656 28.628906 19.195312 32.746094 19.332031 36.867188 C 19.410156 39.175781 19.421875 41.488281 19.386719 43.796875 C 19.382812 43.988281 19.6875 43.988281 19.6875 43.796875 C 19.753906 39.671875 19.671875 35.539062 19.320312 31.429688 C 18.96875 27.316406 18.367188 23.289062 17.378906 19.3125 C 16.816406 17.066406 16.136719 14.851562 15.316406 12.683594 C 15.25 12.503906 14.957031 12.582031 15.023438 12.761719 Z M 15.023438 12.765625 "/>
<path style=" stroke:none;fill-rule:nonzero;fill:rgb(74.901962%,0.784314%,1.176471%);fill-opacity:1;" d="M 19.40625 54.21875 C 19.578125 50.554688 19.753906 46.890625 19.925781 43.222656 C 19.9375 43.027344 19.632812 43.03125 19.625 43.222656 C 19.449219 46.890625 19.277344 50.554688 19.105469 54.21875 C 19.09375 54.414062 19.394531 54.410156 19.40625 54.21875 Z M 19.40625 54.21875 "/>
<path style=" stroke:none;fill-rule:nonzero;fill:rgb(74.901962%,0.784314%,1.176471%);fill-opacity:1;" d="M 50.472656 11.894531 C 51.378906 15.863281 51.992188 19.890625 52.300781 23.945312 C 52.386719 25.097656 52.449219 26.246094 52.488281 27.402344 C 52.496094 27.59375 52.796875 27.59375 52.792969 27.402344 C 52.652344 23.328125 52.214844 19.265625 51.476562 15.253906 C 51.265625 14.101562 51.027344 12.957031 50.765625 11.816406 C 50.722656 11.628906 50.433594 11.707031 50.472656 11.894531 Z M 50.472656 11.894531 "/>
<path style=" stroke:none;fill-rule:nonzero;fill:rgb(74.901962%,0.784314%,1.176471%);fill-opacity:1;" d="M 22.5 17.613281 C 26.609375 17.683594 30.71875 17.621094 34.820312 17.429688 C 35.015625 17.417969 35.015625 17.117188 34.820312 17.128906 C 30.714844 17.320312 26.605469 17.382812 22.5 17.3125 C 22.300781 17.308594 22.300781 17.609375 22.5 17.613281 Z M 22.5 17.613281 "/>
<path style=" stroke:none;fill-rule:nonzero;fill:rgb(74.901962%,0.784314%,1.176471%);fill-opacity:1;" d="M 22.585938 20.136719 C 26.78125 20.277344 30.984375 20.191406 35.171875 19.882812 C 35.367188 19.867188 35.367188 19.570312 35.171875 19.582031 C 30.984375 19.890625 26.78125 19.976562 22.585938 19.835938 C 22.390625 19.828125 22.394531 20.128906 22.585938 20.136719 Z M 22.585938 20.136719 "/>
<path style=" stroke:none;fill-rule:nonzero;fill:rgb(74.901962%,0.784314%,1.176471%);fill-opacity:1;" d="M 22.585938 25.53125 C 29.160156 25.675781 35.738281 25.707031 42.3125 25.621094 C 44.160156 25.597656 46.003906 25.5625 47.847656 25.519531 C 48.042969 25.515625 48.042969 25.214844 47.847656 25.222656 C 41.273438 25.371094 34.699219 25.40625 28.121094 25.328125 C 26.273438 25.304688 24.429688 25.273438 22.585938 25.234375 C 22.390625 25.230469 22.390625 25.527344 22.585938 25.53125 Z M 22.585938 25.53125 "/>
<path style=" stroke:none;fill-rule:nonzero;fill:rgb(74.901962%,0.784314%,1.176471%);fill-opacity:1;" d="M 22.5 30.660156 C 24.992188 30.675781 27.492188 30.628906 29.980469 30.511719 C 30.175781 30.503906 30.175781 30.203125 29.980469 30.210938 C 27.488281 30.328125 24.992188 30.375 22.5 30.359375 C 22.300781 30.359375 22.300781 30.65625 22.5 30.660156 Z M 22.5 30.660156 "/>
<path style=" stroke:none;fill-rule:nonzero;fill:rgb(74.901962%,0.784314%,1.176471%);fill-opacity:1;" d="M 22.585938 35.527344 C 29.050781 35.460938 35.511719 35.347656 41.972656 35.1875 C 43.816406 35.140625 45.65625 35.09375 47.496094 35.039062 C 47.691406 35.03125 47.691406 34.730469 47.496094 34.738281 C 41.035156 34.921875 34.574219 35.0625 28.113281 35.160156 C 26.269531 35.1875 24.429688 35.210938 22.589844 35.230469 C 22.394531 35.230469 22.394531 35.53125 22.589844 35.53125 Z M 22.585938 35.527344 "/>
<path style=" stroke:none;fill-rule:nonzero;fill:rgb(74.901962%,0.784314%,1.176471%);fill-opacity:1;" d="M 22.949219 38.464844 C 23.019531 39.980469 23.09375 41.496094 23.164062 43.011719 C 23.175781 43.203125 23.476562 43.203125 23.46875 43.011719 C 23.394531 41.496094 23.324219 39.980469 23.25 38.464844 C 23.238281 38.273438 22.9375 38.269531 22.949219 38.464844 Z M 22.949219 38.464844 "/>
<path style=" stroke:none;fill-rule:nonzero;fill:rgb(74.901962%,0.784314%,1.176471%);fill-opacity:1;" d="M 23.378906 38.433594 C 25.109375 38.535156 26.839844 38.566406 28.574219 38.523438 C 28.765625 38.519531 28.769531 38.21875 28.574219 38.222656 C 26.839844 38.265625 25.109375 38.234375 23.378906 38.132812 C 23.183594 38.121094 23.183594 38.421875 23.378906 38.433594 Z M 23.378906 38.433594 "/>
<path style=" stroke:none;fill-rule:nonzero;fill:rgb(74.901962%,0.784314%,1.176471%);fill-opacity:1;" d="M 23.46875 43.277344 C 25.257812 43.238281 27.046875 43.199219 28.835938 43.160156 C 29.03125 43.15625 29.03125 42.855469 28.835938 42.859375 C 27.046875 42.902344 25.257812 42.9375 23.46875 42.980469 C 23.273438 42.984375 23.273438 43.28125 23.46875 43.277344 Z M 23.46875 43.277344 "/>
<path style=" stroke:none;fill-rule:nonzero;fill:rgb(74.901962%,0.784314%,1.176471%);fill-opacity:1;" d="M 28.355469 38.429688 C 28.394531 39.945312 28.554688 41.453125 28.839844 42.941406 C 28.878906 43.128906 29.167969 43.050781 29.132812 42.859375 C 28.855469 41.398438 28.695312 39.917969 28.65625 38.429688 C 28.652344 38.238281 28.351562 38.234375 28.355469 38.429688 Z M 28.355469 38.429688 "/>
<path style=" stroke:none;fill-rule:nonzero;fill:rgb(74.901962%,0.784314%,1.176471%);fill-opacity:1;" d="M 24.144531 41.105469 C 24.664062 41.304688 25.148438 41.578125 25.589844 41.914062 C 25.640625 41.953125 25.734375 41.933594 25.773438 41.890625 C 28.328125 39.089844 30.777344 36.195312 33.109375 33.210938 C 33.226562 33.0625 33.015625 32.847656 32.894531 33 C 30.5625 35.984375 28.113281 38.878906 25.558594 41.675781 L 25.742188 41.652344 C 25.277344 41.300781 24.773438 41.023438 24.226562 40.8125 C 24.042969 40.746094 23.964844 41.035156 24.144531 41.105469 Z M 24.144531 41.105469 "/>
<path style=" stroke:none;fill-rule:nonzero;fill:rgb(74.901962%,0.784314%,1.176471%);fill-opacity:1;" d="M 19.039062 54.121094 C 18.992188 55.824219 18.945312 57.53125 18.902344 59.238281 C 18.894531 59.433594 19.195312 59.429688 19.203125 59.238281 C 19.25 57.53125 19.296875 55.824219 19.339844 54.121094 C 19.347656 53.925781 19.042969 53.925781 19.039062 54.121094 Z M 19.039062 54.121094 "/>
<path style=" stroke:none;fill-rule:nonzero;fill:rgb(74.901962%,0.784314%,1.176471%);fill-opacity:1;" d="M 19.023438 59.367188 C 22.417969 59.402344 25.816406 59.496094 29.210938 59.660156 C 30.175781 59.707031 31.140625 59.753906 32.105469 59.8125 C 32.300781 59.824219 32.300781 59.523438 32.105469 59.511719 C 28.714844 59.316406 25.316406 59.179688 21.917969 59.113281 C 20.953125 59.09375 19.988281 59.078125 19.023438 59.070312 C 18.824219 59.070312 18.824219 59.367188 19.023438 59.371094 Z M 19.023438 59.367188 "/>
</g>
</svg>
