<svg width="309" height="228" viewBox="0 0 309 228" fill="none" xmlns="http://www.w3.org/2000/svg">
<path d="M307.029 2C296.947 5.59707 273.882 15.0423 267.541 20.3919C266.211 21.5147 266.654 23.4097 267.278 24.8427C267.902 26.2757 269.24 27.4893 271.188 28.2314C275.317 29.8042 281.002 28.6102 283.602 27.904C299.506 23.5839 248.749 48.3515 241.158 54.6306C233.588 60.892 225.017 71.9863 218.924 81.2681C216.476 84.9971 219.159 88.7429 221.5 90.9574C229.694 98.7079 254.428 82.6336 261.86 77.2674C266.836 73.6743 268.459 68.5246 268.479 64.4067C268.491 62.0384 267.382 59.3158 264.783 58.5867C258.574 56.8445 250.998 62.7634 246.408 67.024C237.321 75.4607 235.221 83.583 235.498 87.0741C235.628 88.7075 238.5 89.0479 240.809 88.8283C251.135 87.8463 257.743 72.6341 260.49 64.2974C261.069 62.5412 260.377 60.9334 259.233 59.7165C258.089 58.4997 256.074 57.7195 253.968 57.4941C238.262 55.8136 208.641 75.5591 190.183 86.6652C181.026 92.1749 173.09 99.071 164.894 105.492C152.173 115.458 146.071 118.107 143.939 121.915C142.935 123.708 143.126 125.454 143.91 126.598C151.213 137.254 178.596 136.436 180.611 136.787C190.489 138.507 156.093 132.168 144.911 133.314C140.631 133.752 134.602 136.436 130.966 138.31C125.693 141.029 126.024 146.894 123.891 153.166C120.779 162.314 105.158 161.044 100.828 160.127C96.6409 159.24 94.9016 155.324 92.4875 153.023C85.8536 146.7 65.7327 157.447 59.8267 159.554C41.0666 166.248 107.021 149.421 110.554 147.318C112.119 146.386 111.804 144.344 111.57 142.623C111.336 140.903 110.83 139.21 108.398 139.052C101.822 138.622 95.466 142.939 91.3327 146.998C77.9985 160.094 74.653 177.066 67.5655 189.959C60.3523 203.081 42.6147 213.615 40.4347 217.511C39.4272 219.311 39.7783 221.007 40.1337 222.927C40.4891 224.846 41.1344 227.002 50.9286 224.737C80.0453 218.002 100.565 207.525 103.272 204.809C106.144 201.93 107.523 198.116 108.482 194.241C109.573 189.833 104.95 176.636 98.7243 161.939C96.8687 157.558 93.2118 161.838 90.9152 166.67C85.8971 177.227 84.193 186.332 84.6006 191.118C85.8611 205.916 132.164 185.421 142.8 178.917C151.597 173.537 162.106 176.035 169.973 178.219C174.264 179.41 176.297 184.515 176.579 189.919C177.104 199.964 149.315 206.735 128.319 211.679C100.523 218.224 78.7912 206.744 65.3229 200.753C60.3667 198.548 58.444 193.094 55.7072 188.951C51.7356 182.939 19.1525 197.802 3.04608 207.815C-0.971858 210.313 2.45641 215.524 5.22947 218.727C16.6426 231.909 65.9811 216.253 87.3206 209.391C96.0404 206.587 89.9577 192.443 95.1936 180.029C96.6431 176.592 98.2712 173.059 97.7926 172.441C92.3265 165.38 74.834 205.089 67.7432 224.11C66.9396 226.265 69.8524 226.637 72.6705 226.187C85.0361 221.333 90.5847 216.561 94.1774 213.572C95.8288 212.042 97.1315 210.485 98.6377 207.589" stroke="#BF0203" stroke-width="2" stroke-linecap="round"/>
</svg>
