<?xml version="1.0" encoding="UTF-8"?>
<svg id="Lag_1" data-name="Lag 1" xmlns="http://www.w3.org/2000/svg" viewBox="0 0 281.44 352.64">
  <defs>
    <style>
      .cls-1 {
        fill: #bf0203;
      }
    </style>
  </defs>
  <path class="cls-1" d="M231.07,294.1c-5.56,5.05-11.2,10.15-17.77,13.87s-14.44,5.65-22.29,5.73c-15.96.16-31.35-5.24-47.25-5.87-15.09-.6-30.79,2.37-45.52-2.05-14.78-4.43-23.85-17-32.29-29.06-9.29-13.28-18.05-26.93-26.24-40.91s-15.77-28.2-22.78-42.74c-3.51-7.29-6.88-14.65-10.09-22.08-1.55-3.58-3.2-7.15-4.4-10.86-1.12-3.49-1.9-7.41-.63-10.97,2.31-6.49,10.22-8.49,16.37-7.25,7.48,1.5,13.55,6.92,19.11,11.81,5.66,4.97,10.7,10.37,14.13,17.14,2.91,5.75,4.95,11.92,8.08,17.56s7.68,10.68,13.86,13.29c1.65.7,3.37,1.23,5.13,1.57,1.63.32,3.46.65,5.12.31,2.54-.53,3.6-2.67,3.58-5.09-.02-2.69-.96-5.49-.02-8.12.27-.75-.93-1.08-1.2-.33-.95,2.65-.12,5.44-.04,8.16.04,1.32-.09,2.75-1.24,3.59-1.65,1.2-4.24.63-6.09.25-7.3-1.49-13.08-6.13-16.94-12.38-3.45-5.59-5.55-11.87-8.36-17.78-3.2-6.73-7.69-12.28-13.17-17.29s-11.2-10.25-18.14-12.87c-5.66-2.14-12.7-2.04-17.63,1.84-5.7,4.49-4.89,11.97-2.72,18.09,1.3,3.67,2.93,7.23,4.48,10.8,1.64,3.78,3.32,7.54,5.04,11.29,6.86,14.94,14.35,29.6,22.42,43.93s16.79,28.42,26.05,42.08c4.31,6.36,8.64,12.77,13.42,18.79,4.49,5.65,9.61,10.93,15.89,14.59,13.4,7.81,29.48,6.32,44.35,5.94,8.05-.21,15.96.18,23.92,1.44,7.94,1.26,15.82,2.98,23.81,3.88s15.77.92,23.34-1.27c7.15-2.06,13.43-6.12,19.16-10.78,2.89-2.35,5.66-4.85,8.41-7.35.59-.54-.29-1.41-.88-.88h0Z"/>
  <path class="cls-1" d="M103,14.41c-4.86-.93-9.68,1.34-12.87,4.98-3.75,4.28-4.91,10.09-5.75,15.54-1,6.47-2.02,13.01-2.01,19.57s1.83,13.07,2.69,19.69.18,12.83-.1,19.24c-.14,3.23-.2,6.48.09,9.71.27,3.04.91,6,1.61,8.96.79,3.34,1.5,6.66,1.72,10.09.2,3.21.09,6.42-.04,9.63-.27,6.77-.56,13.54-.84,20.3-.63,15.21-1.26,30.42-1.9,45.62-.03.8,1.21.8,1.24,0,.54-13.06,1.08-26.12,1.63-39.18.27-6.61.55-13.22.82-19.84.26-6.28.83-12.67.12-18.94-.71-6.27-2.93-12.21-3.25-18.54s.42-12.35.54-18.52c.06-3.07-.06-6.14-.48-9.18-.45-3.19-1.17-6.34-1.73-9.51-1.14-6.44-.99-12.87-.24-19.35.42-3.58.94-7.16,1.53-10.71.52-3.2,1.18-6.45,2.53-9.42,2.47-5.43,8.04-10.16,14.35-8.96.78.15,1.11-1.05.33-1.2h0Z"/>
  <path class="cls-1" d="M102.91,14.65c8.03,2.78,11.22,11.55,12.71,19.18,2.08,10.65,2.66,21.64,3.15,32.46,1.01,21.93.93,44.2,6.56,65.57.6,2.28,1.16,4.93,3.05,6.51,1.24,1.03,2.89,1.46,4.48,1.38,3.27-.16,6.63-2.27,6.95-5.74.07-.79-1.17-.79-1.24,0-.31,3.34-4.44,5.03-7.39,4.37-2.18-.49-3.28-2.24-3.93-4.26-.81-2.48-1.38-5.07-1.94-7.62-2.31-10.42-3.4-21.06-4.05-31.69s-.86-21.22-1.41-31.82-1.13-20.4-3.2-30.32c-1.65-7.87-5.23-16.39-13.41-19.22-.76-.26-1.08.94-.33,1.2h0Z"/>
  <path class="cls-1" d="M140.9,133.95c-.26-14.91-.52-29.81-.79-44.72s-.82-29.7-.55-44.53c.13-7.19.43-14.47,1.66-21.57,1.07-6.22,2.96-13.12,7.28-17.92,2.08-2.3,4.82-3.88,7.97-3.93,2.87-.04,5.69,1.06,7.99,2.73,5.22,3.8,7.11,10.46,8.46,16.45,3.2,14.17,3.84,28.74,4.16,43.22.16,7.27.41,14.56.11,21.83-.29,7.31-1.53,14.45-2.78,21.65-1.19,6.82-2.27,13.76-1.83,20.71.33,5.23,1.17,12.62,6.91,14.7,2.28.83,4.84.36,6.53-1.42,1.56-1.63,2.22-3.94,2.59-6.11.55-3.27.75-6.6,1.14-9.89.44-3.68.92-7.35,1.43-11.01,2.05-14.58,4.65-29.07,7.48-43.51,1.41-7.23,2.89-14.45,4.37-21.66,1.39-6.77,2.49-13.74,4.83-20.27,1.96-5.46,5.49-12.56,12.24-12.55,6.29.01,10.92,5.42,12.37,11.09.84,3.28.9,6.7.82,10.07-.08,3.54-.27,7.08-.47,10.61-.43,7.41-1.06,14.81-1.78,22.2s-1.54,14.77-2.36,22.15-1.68,14.65-3.4,21.83-3.77,13.54-5.37,20.39c-.79,3.38-1.44,6.79-1.83,10.24-.3,2.63-.82,5.81.59,8.23,1.2,2.03,3.59,2.79,5.84,2.54,2.44-.28,4.46-1.58,5.95-3.51,1.82-2.35,2.7-5.27,3.67-8.04,1.21-3.43,2.41-6.86,3.62-10.29,4.86-13.84,9.66-27.7,14.59-41.52,2-5.61,4.2-11.23,7.49-16.23,1.69-2.57,3.68-4.94,6.01-6.96,2.2-1.92,5.77-4.2,8.66-2.34,1.36.87,2.24,2.5,2.97,3.9.79,1.51,1.39,3.11,1.82,4.76.78,2.98.99,6.08.83,9.15-.35,6.74-2.58,13.16-4.85,19.45-1.21,3.34-2.44,6.68-3.45,10.09s-1.72,6.85-2.35,10.32c-1.25,6.88-2.58,13.68-4.48,20.42-3.67,13.06-8.5,25.8-11.44,39.06-1.4,6.32-2.32,12.74-2.49,19.21-.02.8,1.22.8,1.24,0,.36-13.95,4.38-27.39,8.55-40.59,2.05-6.49,4.16-12.96,5.93-19.53,1.88-6.97,3.01-14.04,4.42-21.11s3.86-13.49,6.2-20.16c2.18-6.2,4.05-12.59,4.01-19.22-.02-3.03-.42-6.09-1.38-8.97-.86-2.58-2.16-5.6-4.3-7.39-4.71-3.95-10.8,1.67-13.83,5.13-3.87,4.43-6.51,9.73-8.68,15.15-2.5,6.23-4.58,12.64-6.81,18.98-2.52,7.17-5.04,14.35-7.56,21.52-2.39,6.81-4.56,13.76-7.22,20.47-1.14,2.86-2.85,5.84-5.99,6.77s-6.16-.41-6.57-3.83.38-7.05.98-10.34c.64-3.52,1.5-7,2.42-10.46,1.82-6.81,3.89-13.56,5.19-20.49,1.36-7.28,2.04-14.68,2.85-22.03,1.64-14.92,3.19-29.86,3.84-44.87.28-6.34.76-13.16-2.15-19.02-2.27-4.57-7.23-8.23-12.47-8.06-5.97.19-9.66,5.42-11.86,10.39-2.74,6.18-3.91,12.9-5.27,19.49-3.01,14.59-5.99,29.18-8.6,43.84-2.62,14.7-4.78,29.47-6.38,44.32-.26,2.41-.67,5.19-2.3,7.11-2.17,2.55-5.85,1.9-8.01-.32-2.37-2.45-2.94-6.3-3.32-9.54-.41-3.55-.38-7.14-.09-10.7.58-7.19,2.17-14.25,3.26-21.37s1.41-14.53,1.34-21.86c-.13-14.56-.31-29.24-2.24-43.69-.89-6.69-1.93-13.7-4.38-20.03-2.02-5.23-5.51-9.85-10.96-11.74-13.31-4.62-19.24,12.03-20.96,22-2.49,14.47-1.8,29.46-1.54,44.07.27,15.07.53,30.15.8,45.22.13,7.29.26,14.58.38,21.86.01.8,1.25.8,1.24,0h0Z"/>
  <path class="cls-1" d="M231.35,294.55c3.66-12.27,7.4-24.53,10.92-36.84,3.44-12.02,6.58-24.16,8.47-36.53,1.04-6.84,1.7-13.73,1.84-20.64.02-.8-1.22-.8-1.24,0-.49,24.92-7.86,48.95-14.92,72.64l-6.27,21.03c-.23.77.97,1.09,1.2.33h0Z"/>
  <path class="cls-1" d="M208.76,60.31c5.87-.34,11.77.69,17.15,3.09.72.32,1.35-.75.63-1.07-5.58-2.5-11.67-3.62-17.77-3.26-.79.05-.8,1.29,0,1.24h0Z"/>
  <path class="cls-1" d="M257.31,94.71c4.36,1.46,8.49,3.54,12.26,6.18.66.46,1.28-.62.63-1.07-3.86-2.7-8.09-4.81-12.55-6.3-.76-.25-1.08.94-.33,1.2h0Z"/>
  <path class="cls-1" d="M263.13,130.68c-4.9-2.95-9.79-5.89-14.69-8.84-.69-.41-1.31.66-.63,1.07,4.9,2.95,9.79,5.89,14.69,8.84.69.41,1.31-.66.63-1.07h0Z"/>
  <path class="cls-1" d="M199.29,98.76c6.99.1,13.94.92,20.76,2.47.78.18,1.11-1.02.33-1.2-6.92-1.58-13.99-2.42-21.09-2.52-.8-.01-.8,1.23,0,1.24h0Z"/>
  <path class="cls-1" d="M170.22,46.46c-7.64-1.15-15.36-1.63-23.09-1.41-.8.02-.8,1.26,0,1.24,7.61-.22,15.23.23,22.76,1.36.78.12,1.12-1.08.33-1.2h0Z"/>
  <path class="cls-1" d="M171.47,89.76l-23.84.67c-.8.02-.8,1.26,0,1.24l23.84-.67c.8-.02.8-1.26,0-1.24h0Z"/>
  <path class="cls-1" d="M90.5,57.62c7.14-.47,14.26-1.06,21.38-1.79.79-.08.79-1.32,0-1.24-7.11.73-14.24,1.33-21.38,1.79-.79.05-.8,1.29,0,1.24h0Z"/>
  <path class="cls-1" d="M114.83,98.95c-7.78-.25-15.56-.42-23.34-.51-.8,0-.8,1.23,0,1.24,7.78.09,15.56.26,23.34.51.8.03.8-1.21,0-1.24h0Z"/>
  <path class="cls-1" d="M48.08,178.37c-8.07,2.64-12.52,10.62-19.96,14.32-.71.36-.09,1.43.63,1.07,7.32-3.64,11.74-11.61,19.66-14.19.76-.25.43-1.45-.33-1.2h0Z"/>
  <path class="cls-1" d="M121.24,183.82c11.29,8.15,25.49,10.3,39.09,10.88,14.44.62,29-.6,43.32,1.87,7.86,1.35,15.52,3.87,22.19,8.31.67.44,1.29-.63.63-1.07-11.78-7.84-26.23-9.61-40.05-10.03-14.35-.43-28.84.64-43.02-2.17-7.69-1.52-15.13-4.24-21.52-8.86-.65-.47-1.27.61-.63,1.07h0Z"/>
  <path class="cls-1" d="M114.54,196.83c4.54,3.01,7.63,7.56,10.45,12.12,2.97,4.81,5.7,9.77,8.16,14.86,4.87,10.08,8.7,20.66,11.4,31.52,1.55,6.24,2.72,12.57,3.51,18.95.1.78,1.34.79,1.24,0-2.83-22.97-10.61-45.24-22.65-65.01-3.09-5.08-6.43-10.18-11.48-13.52-.67-.44-1.29.63-.63,1.07h0Z"/>
  <path class="cls-1" d="M231.06,298.1c-7.01,16.39-10.94,33.98-11.44,51.81-.02.8,1.22.8,1.24,0,.5-17.59,4.35-35,11.28-51.18.31-.73-.76-1.36-1.07-.63h0Z"/>
  <path class="cls-1" d="M83.1,302.64c3.26,7.6,4.73,15.63,4.86,23.87.07,4.18-.02,8.36-.04,12.54-.01,2.14-.03,4.28-.04,6.42,0,.99-.01,1.98-.02,2.96,0,.91.2,2.36-.63,3-.63.48,0,1.56.63,1.07,1.32-1.01,1.23-2.54,1.24-4.07.02-2.31.03-4.61.05-6.92.03-4.68.11-9.36.07-14.03-.08-8.83-1.56-17.34-5.04-25.48-.31-.73-1.38-.1-1.07.63h0Z"/>
</svg>