<svg width="596" height="810" viewBox="0 0 596 810" fill="none" xmlns="http://www.w3.org/2000/svg">
<path d="M2 808C24.7838 808 66.4169 806.64 79.7427 803.89C93.1107 801.131 103.449 798.4 115.319 793.94C126.95 789.569 143.415 781.961 159.03 773.35C169.479 767.587 179.78 760.66 190.527 752.409C205.654 740.796 221.258 718.099 232.75 703.348C250.431 680.654 261.268 667.297 269.081 652.176C280.285 630.494 297.589 599.315 306.858 585.914C325.329 559.21 339.822 528.572 353.526 500.473C360.37 486.439 366.496 465.493 369.13 449.249C371.099 437.107 374.676 426.269 374.331 404.988C374.261 400.684 371.03 399.447 365.496 398.746C359.961 398.046 351.158 398.046 345.89 399.066C333.715 401.422 331.731 414.485 329.13 427.165C326.587 439.566 329.486 449.527 330.964 453.637C332.442 457.747 336.132 462.567 341.678 467.027C349.341 473.19 383.3 472.208 404.661 469.819C419.036 468.211 428.734 453.009 435.792 445.798C442.85 438.588 450.962 431.048 463.921 411.859C476.794 392.797 490.973 374.067 498.03 363.066C505.286 351.755 511.734 337.027 517.647 313.727C527.056 276.648 540.653 250.442 542.131 243.592C546.644 222.676 545.832 196.2 548.799 187.61C552.588 176.64 552.5 165.299 555.101 152.609C558.086 138.042 557.702 120.06 559.547 103.518C561.915 82.284 562.147 69.8766 563.992 58.1754C565.61 47.9121 568.06 36.9154 569.182 21.7945C569.646 15.5455 571.038 10.0933 569.938 6.65298C567.115 -2.17273 551.078 21.0117 545.143 26.1721C536.59 33.6093 566.571 4.5929 570.272 2.52253C577.115 -1.30551 580.641 16.8915 585.098 24.8022C587.396 28.8811 592.511 31.3326 594 33.403C588.843 27.9335 581.441 21.0941 577.718 12.8435C576.973 10.7731 576.24 8.73365 571.038 4.5723" stroke="#BF0203" stroke-width="3" stroke-linecap="round"/>
</svg>
