<?xml version="1.0" encoding="UTF-8"?>
<svg id="Lag_1" data-name="Lag 1" xmlns="http://www.w3.org/2000/svg" viewBox="0 0 312 301">
  <defs>
    <style>
      .cls-1 {
        fill: none;
      }

      .cls-2, .cls-3 {
        fill: #bf0203;
      }

      .cls-4 {
        opacity: .34;
      }

      .cls-3 {
        stroke: #bf0203;
        stroke-miterlimit: 10;
        stroke-width: .5px;
      }
    </style>
  </defs>
  <g>
    <path class="cls-2" d="M221.68.89c-3.7,1.3-6.19,4.45-7.36,8.11-1.41,4.41-.66,9.05.88,13.32,1.79,4.96,4.56,9.5,6.27,14.48.91,2.65,1.52,5.41,1.42,8.23-.1,2.65-.91,5.19-1.76,7.68-3.67,10.68-6.89,21.49-9.39,32.51-1.16,5.12-2.76,10.6-2.42,15.89.28,4.36,2.26,8.26,5.44,11.22,8.53,7.95,20.75,6.95,31.46,5.73.95-.11.96-1.61,0-1.5-9.48,1.08-20.02,2.21-28.29-3.58-3.42-2.39-6.09-5.87-6.88-10.03-.99-5.24.69-10.84,1.82-15.93,2.28-10.26,5.11-20.41,8.49-30.37,1.58-4.68,3.48-9.28,2.94-14.32s-2.62-9.3-4.69-13.65c-2.32-4.88-4.9-10.18-4.52-15.73.3-4.41,2.62-9.08,7-10.61.91-.32.52-1.77-.4-1.45h0Z"/>
    <path class="cls-2" d="M224.31,2.68c11.42-.54,22.75,5.12,29.11,14.64.29.43,1.03.54,1.3,0,2.63-5.31,10.24-3.22,13.87-.29,5.06,4.09,8.01,10.07,11.8,15.23s8.98,9.52,15.12,12.03c1.56.64,3.17,1.16,4.81,1.55,1.49.36,3.49.41,4.65,1.53,1.27,1.23,1.02,3.44.97,5.05-.06,1.85-.2,3.7-.45,5.53-1.1,8.25-4.09,16.19-8.64,23.15-.53.81.77,1.56,1.3.76,4.32-6.61,7.27-14.09,8.55-21.89.3-1.85.52-3.72.65-5.59.11-1.74.27-3.58-.01-5.32-.63-3.83-4.09-4.01-7.2-4.81-7.42-1.93-13.79-6.46-18.33-12.59-4.03-5.45-7.13-11.82-12.6-16.04-4.31-3.34-12.8-5.05-15.77.95h1.3c-6.65-9.95-18.45-15.95-30.41-15.38-.96.05-.97,1.55,0,1.5h0Z"/>
    <path class="cls-2" d="M272.49,85.83c3.46-5.26,10.35-7.89,16.45-8.28,2.74-.18,6.02.19,7.75,2.6,1.04,1.44,1.27,3.31,1.47,5.02.22,1.89.41,3.78.46,5.68.17,6.54-2.14,14.35-9.51,15.67-5.35.96-12.05-1.09-15.89,3.92-2.22,2.89-2.96,6.89-3.89,10.33-1.17,4.31-2.15,8.67-2.98,13.06-.18.94,1.27,1.35,1.45.4.78-4.16,1.7-8.28,2.79-12.37.52-1.96,1.07-3.91,1.67-5.84.54-1.74,1.17-3.56,2.38-4.96,2.32-2.7,6-2.72,9.28-2.75,3.06-.02,6.25-.03,9.02-1.52,6.43-3.47,7.56-11.5,7.08-18.08-.24-3.27-.26-7.4-2.55-10-1.89-2.14-4.92-2.75-7.65-2.71-6.89.11-14.72,3.15-18.61,9.05-.53.81.77,1.56,1.3.76h0Z"/>
    <path class="cls-2" d="M267.42,136.85c2.91,6.5,5.82,13,8.73,19.5.39.88,1.69.12,1.3-.76-2.91-6.5-5.82-13-8.73-19.5-.39-.88-1.69-.12-1.3.76h0Z"/>
    <path class="cls-2" d="M277.73,155.31c12.32,13.27,21.45,29.42,26.52,46.8,2.69,9.21,4.13,18.68,4.59,28.26.52,10.63.17,21.32-.04,31.95-.24,12.08-.66,24.17-1.89,36.19-.1.96,1.4.95,1.5,0,1.11-10.87,1.57-21.79,1.82-32.72.25-10.82.59-21.68.23-32.5-.32-9.8-1.51-19.52-4.04-29-2.33-8.73-5.68-17.2-9.92-25.17-4.8-9.02-10.76-17.4-17.71-24.88-.66-.71-1.72.35-1.06,1.06h0Z"/>
    <path class="cls-2" d="M230.87,120.84c-1.53,12.54-3.77,24.98-6.7,37.27-.22.94,1.22,1.34,1.45.4,2.96-12.42,5.21-24.99,6.75-37.67.12-.96-1.38-.95-1.5,0h0Z"/>
    <path class="cls-2" d="M224.52,162.52c4.17-5,8.35-9.99,12.52-14.99.61-.74-.44-1.8-1.06-1.06-4.17,5-8.35,9.99-12.52,14.99-.61.74.44,1.8,1.06,1.06h0Z"/>
    <path class="cls-2" d="M236.05,147.67c10.34-.5,20.41-3.71,29.11-9.32.81-.52.06-1.82-.76-1.3-8.48,5.46-18.27,8.62-28.35,9.11-.96.05-.97,1.55,0,1.5h0Z"/>
    <path class="cls-2" d="M235.11,152.89c.48,6.67,1.68,13.26,3.59,19.67.28.92,1.72.53,1.45-.4-1.87-6.28-3.06-12.73-3.53-19.27-.07-.96-1.57-.96-1.5,0h0Z"/>
    <path class="cls-2" d="M240.77,174.38c10.28-8.84,20.74-17.77,33.2-23.41.88-.4.12-1.69-.76-1.3-12.57,5.69-23.14,14.72-33.5,23.64-.73.63.33,1.69,1.06,1.06h0Z"/>
    <path class="cls-2" d="M226.67,130.85c-8.17-.9-16.07,6.04-16.42,14.2-.04.97,1.46.96,1.5,0,.31-7.42,7.58-13.51,14.92-12.7.96.11.95-1.4,0-1.5h0Z"/>
    <path class="cls-2" d="M212.66,138.25c-7.24-1.18-14.57-2.34-21.93-2.1s-13.89,1.96-19.98,5.66c-3.18,1.94-6.13,4.23-9.08,6.5-3.17,2.43-6.33,4.87-9.5,7.31-6.46,4.97-12.92,9.94-19.39,14.91-7.39,5.68-14.77,11.36-22.16,17.05-.75.58,0,1.88.76,1.3,12.79-9.84,25.59-19.68,38.38-29.52,6.11-4.7,12.1-9.61,18.41-14.04,2.97-2.08,6.09-3.98,9.5-5.25s6.88-1.96,10.43-2.25c8.09-.67,16.2.59,24.16,1.9.94.15,1.35-1.29.4-1.45h0Z"/>
    <path class="cls-2" d="M237.85,270.06c-6.32-8.75-12.68-17.53-20.12-25.37-3.7-3.91-7.68-7.56-11.98-10.79-4.59-3.45-9.58-6.24-14.68-8.85-6.35-3.24-12.72-6.44-19.08-9.66-.86-.43-1.62.86-.76,1.3,5.52,2.79,11.04,5.59,16.57,8.38,5.2,2.63,10.38,5.29,15.16,8.65,8.7,6.11,15.97,14.01,22.55,22.3,3.83,4.82,7.45,9.82,11.05,14.81.56.78,1.86.03,1.3-.76h0Z"/>
    <path class="cls-2" d="M229.28,208.92c-6.9,9.3-13.8,18.6-20.69,27.9-.58.78.73,1.52,1.3.76,6.9-9.3,13.8-18.6,20.69-27.9.58-.78-.73-1.52-1.3-.76h0Z"/>
    <path class="cls-2" d="M181.11,171.08c-6.35,10.28-12.69,20.55-19.04,30.83-.51.82.79,1.58,1.3.76,6.35-10.28,12.69-20.55,19.04-30.83.51-.82-.79-1.58-1.3-.76h0Z"/>
    <path class="cls-2" d="M172.39,217.82c-1.01,7.96-3.64,15.6-6.62,23.02s-6.46,15.39-9.71,23.07c-1.9,4.5-3.8,8.99-5.71,13.49-.37.88.92,1.64,1.3.76,3.42-8.08,6.83-16.15,10.25-24.23,3.19-7.55,6.56-15.07,9.03-22.9,1.36-4.32,2.39-8.72,2.96-13.21.12-.95-1.38-.95-1.5,0h0Z"/>
    <path class="cls-2" d="M131.65,252.42c9.48,16.44,20.32,32.07,32.38,46.72.61.75,1.67-.32,1.06-1.06-11.98-14.55-22.73-30.09-32.15-46.41-.48-.84-1.78-.08-1.3.76h0Z"/>
    <path class="cls-2" d="M137.34,192.47c18.95,1.46,32.9,15.99,45.14,29.03.66.71,1.72-.36,1.06-1.06-10.02-10.68-20.55-21.72-34.6-26.91-3.74-1.38-7.63-2.25-11.6-2.56-.96-.07-.96,1.43,0,1.5h0Z"/>
    <path class="cls-2" d="M74.12,192.63c17.25-.25,34.49-.5,51.74-.75,4.92-.07,9.83-.14,14.75-.21.96-.01.97-1.51,0-1.5l-51.74.75-14.75.21c-.96.01-.97,1.51,0,1.5h0Z"/>
    <path class="cls-2" d="M75.46,191.18c-3.65.84-7.7-1.26-10.76,1.68-.92.89-1.61,2.16-1.38,3.47.3,1.66,1.79,2.43,3.2,3.05,7.49,3.24,15.66,4.85,23.82,4.73,4.71-.07,9.39-.72,13.95-1.92.93-.25.54-1.69-.4-1.45-8.86,2.33-18.22,2.49-27.15.43-2.15-.5-4.27-1.12-6.35-1.86-1.18-.42-2.37-.88-3.51-1.4-.83-.37-1.91-.82-2.09-1.83-.38-2.15,2.54-3.36,4.2-3.42,2.32-.09,4.57.5,6.88-.03.94-.22.54-1.66-.4-1.45h0Z"/>
    <path class="cls-2" d="M97.36,203.78c-4.69,1.75-5.97,6.98-6.05,11.5-.11,5.84,1,12.35,3.91,17.48.77,1.36,1.83,2.54,2.55,3.92.86,1.65.81,3.46.69,5.27-.2,2.96-.31,5.8,1.7,8.21,3.4,4.08,9.72,5.75,14.81,5.94,6.29.23,12.56-1.84,17.39-5.89.74-.62-.33-1.68-1.06-1.06-3.99,3.35-9.09,5.21-14.29,5.44s-10.85-1.01-14.72-4.4c-2.45-2.14-2.57-4.78-2.36-7.83.19-2.78.06-5.17-1.54-7.54s-3.03-4.78-3.9-7.61-1.28-5.61-1.53-8.48c-.4-4.53-.34-11.59,4.8-13.51.9-.33.51-1.78-.4-1.45h0Z"/>
    <path class="cls-2" d="M119.53,242.89c5.95,4.23,13,6.7,20.28,7.16.96.06.96-1.44,0-1.5-7.03-.45-13.79-2.88-19.53-6.96-.79-.56-1.54.74-.76,1.3h0Z"/>
    <path class="cls-2" d="M114.9,226.98c-6.59-.67-11.26,5.5-14.47,10.37-.53.81.77,1.56,1.3.76,2.92-4.44,7.15-10.24,13.17-9.63.96.1.95-1.4,0-1.5h0Z"/>
    <path class="cls-2" d="M111.87,214.72c-6.28-1.14-12.96,2.01-15.97,7.66-.45.85.84,1.61,1.3.76,2.68-5.03,8.65-8,14.28-6.97.94.17,1.35-1.27.4-1.45h0Z"/>
    <path class="cls-2" d="M97.6,245.25c-4.63.51-9-1.48-13.23-3.08-4.48-1.69-8.96-3.39-13.44-5.08-8.39-3.17-17.43-5.81-24.89-10.93-.8-.55-1.55.75-.76,1.3,3.65,2.51,7.67,4.34,11.77,5.96,4.47,1.77,8.98,3.42,13.48,5.12s9.27,3.5,13.91,5.25c4.22,1.59,8.56,3.47,13.17,2.96.95-.1.96-1.61,0-1.5h0Z"/>
    <path class="cls-2" d="M19.08,152.41c-5.86,3.12-7.72,10.14-7.75,16.34-.04,7.31,1.98,14.9,5.64,21.23,2.11,3.65,4.85,6.92,8.15,9.54.75.59,1.82-.46,1.06-1.06-5.55-4.41-9.33-10.58-11.41-17.32-1.9-6.17-2.84-13.24-.95-19.52,1-3.31,2.91-6.26,6.02-7.91.85-.45.1-1.75-.76-1.3h0Z"/>
    <path class="cls-2" d="M21.11,153.68c3.97-.87,7.8,1.21,10.25,4.25,2.78,3.46,3.41,8,2.87,12.3-1.17,9.35-7.15,17.21-9,26.38-.19.94,1.26,1.35,1.45.4,1.63-8.07,6.38-15.05,8.36-23.01,1.7-6.85,1.07-14.64-4.82-19.32-2.71-2.15-6.08-3.2-9.5-2.45-.94.21-.54,1.65.4,1.45h0Z"/>
    <path class="cls-2" d="M29.57,167.31c-1.73,3.47-3.98,6.64-6.7,9.41-.68.69.38,1.75,1.06,1.06,2.8-2.85,5.15-6.14,6.93-9.71.43-.86-.86-1.62-1.3-.76h0Z"/>
    <path class="cls-2" d="M26.01,158.46c-3.98,1.98-7.36,5.08-9.72,8.85-.51.82.78,1.57,1.3.76,2.23-3.56,5.42-6.44,9.18-8.31.86-.43.11-1.72-.76-1.3h0Z"/>
    <path class="cls-2" d="M65.5,144.39l-5.64-.53-2.63-.25c-.81-.08-1.11-.11-1.64.55-1.6,1.95-1.51,4.78-.5,6.98,1.26,2.73,3.84,4.56,6.15,6.34,2.94,2.26,5.88,4.53,8.82,6.79.76.59,1.51-.71.76-1.3-3.68-2.83-7.49-5.56-11.04-8.54-2.57-2.15-5.81-6.44-2.77-9.61l-.53.22,9.02.86c.96.09.95-1.41,0-1.5h0Z"/>
    <path class="cls-2" d="M66.36,145.48c3.22,5.03,5.07,10.82,5.33,16.79.04.96,1.54.97,1.5,0-.27-6.23-2.17-12.3-5.53-17.55-.52-.81-1.82-.06-1.3.76h0Z"/>
    <path class="cls-2" d="M281.2,88.17c3.59-1.9,8.64,1.22,8.63,5.25,0,.97,1.5.97,1.5,0,.02-5.2-6.3-8.96-10.88-6.55-.85.45-.1,1.75.76,1.3h0Z"/>
    <path class="cls-2" d="M270.69,81.57c-3.53-1.42-6.2-4.51-7.44-8.07-.61-1.74-.89-3.58-.78-5.42.05-.91.21-1.81.47-2.68.32-1.07.88-2.05,1.15-3.13.94-3.81-2.88-5.92-5.89-6.98-5.11-1.79-10.29-3.41-15.44-5.11-5.83-1.93-11.66-3.86-17.49-5.79-.92-.3-1.31,1.14-.4,1.45,10.4,3.44,20.8,6.88,31.19,10.33,1.94.64,4.14,1.24,5.63,2.73,1.88,1.88.49,3.85-.16,5.95-1.03,3.32-.67,6.98.69,10.15,1.56,3.63,4.39,6.54,8.06,8.02.9.36,1.28-1.09.4-1.45h0Z"/>
    <path class="cls-2" d="M245.63,10.65c1.4,4.68,2.99,9.31,4.78,13.86.89,2.26,1.83,4.5,2.81,6.72.79,1.79,1.47,3.99,2.86,5.42.97,1,2.53,1.51,3.84.87,1.71-.85,1.41-2.81,1.13-4.36-.91-4.99-1.84-9.98-2.76-14.97-.17-.95-1.62-.55-1.45.4.74,4.03,1.48,8.05,2.22,12.08.22,1.21,1.63,5.31-.21,5.62s-2.77-2.32-3.38-3.64c-3.33-7.25-6.13-14.74-8.41-22.38-.28-.92-1.72-.53-1.45.4h0Z"/>
    <path class="cls-2" d="M285.15,41.31c.84,2.06,1.68,4.13,2.51,6.19.15.38.5.64.92.52.36-.1.68-.55.52-.92-.84-2.06-1.68-4.13-2.51-6.19-.15-.38-.5-.64-.92-.52-.36.1-.68.55-.52.92h0Z"/>
    <path class="cls-2" d="M246.28,57.85l3.18,6.23c.18.36.69.47,1.03.27.37-.21.45-.66.27-1.03-1.06-2.08-2.12-4.15-3.18-6.23-.18-.36-.69-.47-1.03-.27-.37.21-.45.66-.27,1.03h0Z"/>
    <path class="cls-2" d="M224.33,51.42l-8.22.95c-.94.11-.97,1.6,0,1.5,3.88-.39,7.72-1.1,11.48-2.14.93-.26.53-1.7-.4-1.45-3.63,1-7.33,1.7-11.08,2.08v1.5l8.22-.95c.41-.05.75-.31.75-.75,0-.37-.35-.8-.75-.75h0Z"/>
    <path class="cls-2" d="M242.55,67.08l-.78.78c-.07.07-.12.15-.16.24-.05.09-.07.19-.06.29,0,.1.02.2.06.29.03.09.08.17.16.24.14.13.33.23.53.22l.2-.03c.13-.04.24-.1.33-.19l.78-.78c.07-.07.12-.15.16-.24.05-.09.07-.19.06-.29,0-.1-.02-.2-.06-.29-.03-.09-.08-.17-.16-.24-.14-.13-.33-.23-.53-.22l-.2.03c-.13.04-.24.1-.33.19h0Z"/>
    <path class="cls-2" d="M227.66,58.67l-.79,1.56c-.09.18-.13.38-.08.58.05.17.18.36.34.45.17.09.38.14.58.08.18-.06.36-.17.45-.34l.79-1.56c.09-.18.13-.38.08-.58-.05-.17-.18-.36-.34-.45-.17-.09-.38-.14-.58-.08-.18.06-.36.17-.45.34h0Z"/>
    <path class="cls-2" d="M228.65,68.05c-2.19,2.12-4.2,4.41-6,6.86s-3.73,5.13-4.57,8.08c-.68,2.37-.39,4.98,1.66,6.57,1.61,1.25,3.88,1.56,5.45.08.7-.67-.36-1.72-1.06-1.06-1.32,1.26-3.41.24-4.29-1.06-1.42-2.08-.17-4.98.9-6.91,2.36-4.26,5.49-8.12,8.98-11.49.7-.67-.37-1.73-1.06-1.06h0Z"/>
    <path class="cls-2" d="M254.19,86.21c-1.44,5.07-6.67,8.56-11.9,8.05-.96-.09-.95,1.41,0,1.5,5.88.58,11.74-3.48,13.34-9.15.26-.93-1.18-1.33-1.45-.4h0Z"/>
    <path class="cls-2" d="M13.92,86.98c-2.94-1.89-6.71-.21-8.51,2.48-2.56,3.83-1.15,9.04-.3,13.18,2.19,10.57,4.82,21.05,7.88,31.41,1.74,5.87,3.61,11.7,5.62,17.49.31.91,1.76.52,1.45-.4-3.17-9.14-6.01-18.38-8.5-27.73-1.24-4.67-2.4-9.37-3.47-14.08-.53-2.36-1.05-4.72-1.54-7.09s-1.01-4.54-1.07-6.85.43-4.78,2.28-6.36c1.51-1.29,3.63-1.89,5.39-.76.81.52,1.57-.77.76-1.3h0Z"/>
    <path class="cls-2" d="M29.07,190.89c1.92,6.38,3.83,12.76,5.75,19.13.88,2.92,1.65,5.89,2.67,8.76.7,1.96,1.62,3.99,3.15,5.46s3.61,2.07,5.76,1.64c2.79-.56,5.55-1.92,8.15-3.04,5.47-2.37,10.73-5.2,15.71-8.46,3.68-2.41,11.47-6.73,8.92-12.25-.4-.88-1.7-.11-1.3.76,1.09,2.37-1.06,4.72-2.72,6.17-1.96,1.7-4.23,3.12-6.41,4.51-4.39,2.81-8.98,5.3-13.74,7.43-2.38,1.07-4.81,2.08-7.28,2.93s-4.67.85-6.46-1.2c-1.3-1.49-2.06-3.43-2.65-5.3-.86-2.66-1.62-5.36-2.42-8.04l-5.68-18.89c-.28-.92-1.73-.53-1.45.4h0Z"/>
    <path class="cls-2" d="M13.97,87.03l19.05-2.38c3.18-.4,6.37-.92,9.56-1.18,2.77-.22,4.92.64,6.39,3.03,1.18,1.92,1.75,4.13,2.29,6.3.75,3.06,1.51,6.11,2.26,9.17,1.53,6.19,3.05,12.38,4.58,18.57,1.73,7,3.45,13.99,5.18,20.99.23.94,1.68.54,1.45-.4-3.21-13.03-6.42-26.05-9.64-39.08-.79-3.22-1.58-6.43-2.38-9.65-.54-2.19-1.14-4.41-2.27-6.37-1-1.74-2.47-3.21-4.43-3.81-2.89-.87-6.37.1-9.28.46-7.59.95-15.17,1.9-22.76,2.85-.95.12-.96,1.62,0,1.5h0Z"/>
    <path class="cls-2" d="M70.84,166.96c.21,7.43,1.93,14.71,5.06,21.46.41.87,1.7.11,1.3-.76-3.01-6.49-4.66-13.54-4.86-20.7-.03-.96-1.53-.97-1.5,0h0Z"/>
    <path class="cls-2" d="M5.24,87.81c-2.34,2.91-3.81,6.35-4.23,10.07-.49,4.34.9,8.44,2.15,12.54,2.78,9.14,5.56,18.29,8.34,27.43,1.57,5.17,3.14,10.34,4.71,15.51.28.92,1.73.53,1.45-.4-2.61-8.59-5.22-17.18-7.83-25.76-1.3-4.29-2.61-8.59-3.91-12.88s-3.07-8.55-3.45-12.94c-.39-4.48,1.03-9.01,3.84-12.5.6-.75-.45-1.81-1.06-1.06h0Z"/>
    <path class="cls-2" d="M27.97,199.32c1.78,6.29,3.55,12.57,5.33,18.86.73,2.57,1.29,5.43,3.02,7.55,1.45,1.78,3.75,2.83,6.03,2.18.93-.26.53-1.71-.4-1.45-2.76.78-4.83-1.66-5.76-3.95-.98-2.42-1.53-5.05-2.24-7.56-1.51-5.34-3.02-10.69-4.53-16.03-.26-.93-1.71-.53-1.45.4h0Z"/>
    <path class="cls-2" d="M16.7,86.21c-1.69,2.54-.28,5.68,1.92,7.39,3.21,2.5,7.51,1.5,11.21,1.04,3.49-.43,7.85.13,10.67-2.43,2-1.82,2.9-5.22.78-7.28-.69-.67-1.75.39-1.06,1.06,1.79,1.74.28,4.68-1.56,5.72-2.72,1.53-6.25,1.09-9.25,1.48s-6.43,1.23-9.13-.29c-1.99-1.12-3.71-3.77-2.26-5.94.54-.81-.76-1.56-1.3-.76h0Z"/>
    <path class="cls-2" d="M55.09,216.38c4.15-2.12,8.31-4.24,12.46-6.36.86-.44.1-1.73-.76-1.3-4.15,2.12-8.31,4.24-12.46,6.36-.86.44-.1,1.73.76,1.3h0Z"/>
    <path class="cls-2" d="M20.15,118.42c.97,0,.97-1.5,0-1.5s-.97,1.5,0,1.5h0Z"/>
    <path class="cls-2" d="M19.94,114.83c4.52,13.53,9.61,26.86,15.24,39.97.38.88,1.67.12,1.3-.76-5.58-12.99-10.61-26.21-15.08-39.61-.3-.91-1.75-.52-1.45.4h0Z"/>
    <path class="cls-2" d="M22.52,114c8.18-.78,16.31-2.04,24.35-3.78.94-.2.54-1.65-.4-1.45-7.9,1.71-15.9,2.96-23.95,3.72-.95.09-.96,1.59,0,1.5h0Z"/>
    <path class="cls-2" d="M38.44,154.77c5.43-1.46,10.87-2.92,16.3-4.39.93-.25.54-1.7-.4-1.45-5.43,1.46-10.87,2.92-16.3,4.39-.93.25-.54,1.7.4,1.45h0Z"/>
    <path class="cls-2" d="M46.69,110.07c2.09,10.98,5.15,21.75,9.14,32.19.34.89,1.79.51,1.45-.4-4-10.44-7.06-21.21-9.14-32.19-.18-.95-1.63-.55-1.45.4h0Z"/>
    <g class="cls-4">
      <path class="cls-2" d="M30.53,123.64c1.65-2.22,3.74-4,6.16-5.32l-1.1-.85c-.84,2.02-1.69,4.04-2.53,6.05-.25.59.59,1.21,1.1.85,2.63-1.88,5.26-3.77,7.89-5.65l-1.03-1.03c-3.39,5.51-6.78,11.03-10.17,16.54-.46.75.56,1.47,1.18.91,3.16-2.86,6.32-5.72,9.48-8.58l-1.25-.73c-.71,5.07-2.32,9.92-4.81,14.39-.41.74.56,1.51,1.18.91,3.02-2.97,6.04-5.95,9.05-8.92l-1.25-.73c-.65,3.52-1.68,6.95-3.06,10.25-.28.67.59,1.08,1.1.85,2-.91,4-1.83,5.99-2.74l-1.1-.85c-.2,1.29-.61,2.45-1.29,3.56-.51.83.79,1.58,1.3.76.74-1.22,1.23-2.51,1.44-3.92.1-.67-.48-1.13-1.1-.85-2,.91-4,1.83-5.99,2.74l1.1.85c1.38-3.31,2.41-6.73,3.06-10.25.13-.71-.69-1.29-1.25-.73-3.02,2.97-6.04,5.95-9.05,8.92l1.18.91c2.55-4.58,4.23-9.56,4.96-14.75.1-.72-.66-1.27-1.25-.73-3.16,2.86-6.32,5.72-9.48,8.58l1.18.91c3.39-5.51,6.78-11.03,10.17-16.54.37-.61-.4-1.47-1.03-1.03-2.63,1.88-5.26,3.77-7.89,5.65l1.1.85c.84-2.02,1.69-4.04,2.53-6.05.27-.64-.58-1.13-1.1-.85-2.66,1.45-4.9,3.43-6.7,5.86-.58.78.73,1.52,1.3.76h0Z"/>
    </g>
    <ellipse class="cls-3" cx="55.11" cy="195.21" rx="9.46" ry="5.8" transform="translate(-107.36 73.77) rotate(-37.46)"/>
  </g>
  <rect id="_Udsnit_" data-name="&amp;lt;Udsnit&amp;gt;" class="cls-1" width="312" height="301"/>
</svg>