<?xml version="1.0" encoding="UTF-8"?>
<svg id="Lag_1" data-name="Lag 1" xmlns="http://www.w3.org/2000/svg" viewBox="0 0 324.24 347.91">
  <defs>
    <style>
      .cls-1, .cls-2 {
        fill: #bf0203;
      }

      .cls-3 {
        opacity: .34;
      }

      .cls-2 {
        stroke: #bf0203;
        stroke-miterlimit: 10;
        stroke-width: .55px;
      }
    </style>
  </defs>
  <path class="cls-1" d="M231.1.06c-4.13,1.6-6.65,5.48-7.79,9.62-1.39,5.04-.64,10.28.94,15.19,1.83,5.72,4.73,11.03,6.53,16.76.92,2.94,1.57,5.97,1.58,9.07,0,3.25-.82,6.37-1.76,9.46-3.7,12.07-7.01,24.21-9.59,36.57-1.24,5.96-2.82,12.15-2.91,18.27-.07,5.09,1.45,9.87,4.72,13.8s8.31,6.85,13.5,8.01c6.76,1.5,13.71.66,20.48-.2,1.04-.13,1.06-1.79,0-1.66-10.5,1.34-22.37,2.52-30.82-5.23-3.67-3.37-5.91-7.87-6.19-12.86-.33-5.86,1.22-11.84,2.37-17.54,2.4-11.82,5.36-23.53,8.9-35.07,1.7-5.54,3.48-10.88,2.73-16.75-.7-5.51-2.94-10.62-5.1-15.69-2.41-5.65-4.9-11.73-4.43-18,.36-4.72,2.54-10.29,7.28-12.13.98-.38.56-1.98-.44-1.6h0Z"/>
  <path class="cls-1" d="M233.86,2.06c12.47-.67,24.12,6.55,30.43,17.09.29.49,1.17.59,1.43,0,2.73-6.18,10.78-3.73,14.63-.18,5.35,4.93,8.32,11.82,12.29,17.79,4.07,6.12,9.52,11.18,16.33,14.08,1.59.68,3.23,1.25,4.91,1.67s3.84.57,4.78,2.27.63,4.16.56,6.04c-.08,2.08-.24,4.16-.5,6.22-1.17,9.33-4.21,18.42-8.98,26.52-.54.92.89,1.76,1.43.84,4.46-7.59,7.45-16.02,8.83-24.72.67-4.22,1.31-8.83.84-13.1-.19-1.68-.8-3.3-2.25-4.27s-3.35-1.13-5.02-1.6c-8.04-2.22-14.67-7.62-19.28-14.47-4.29-6.37-7.41-13.84-13.32-18.95-4.59-3.97-13.65-5.84-16.67,1.02h1.43C259.13,7.3,246.91-.29,233.86.41c-1.06.06-1.07,1.71,0,1.66h0Z"/>
  <path class="cls-1" d="M284.34,99.03c3.43-5.83,10.43-9.14,17.04-9.66,3.17-.25,6.75.36,8.42,3.39.96,1.75,1.15,3.83,1.35,5.77.22,2.15.41,4.3.46,6.46.15,6.92-1.74,16.49-9.75,18.2-3.21.69-6.54.17-9.78.59s-5.73,1.82-7.4,4.51c-2.21,3.56-2.94,8.17-3.9,12.18-1.15,4.82-2.13,9.68-2.96,14.57-.18,1.04,1.42,1.49,1.6.44.77-4.57,1.68-9.12,2.74-13.64.55-2.33,1.13-4.65,1.76-6.96.52-1.92,1.07-3.87,2.1-5.59,2.07-3.47,5.7-4.01,9.42-4.06,3.34-.04,6.84.09,9.88-1.54,7.17-3.86,8.28-13.38,7.87-20.62-.13-2.18-.32-4.38-.61-6.54-.25-1.83-.68-3.7-1.75-5.25-1.83-2.64-4.98-3.62-8.07-3.63-7.58-.02-15.95,3.92-19.85,10.54-.54.92.89,1.76,1.43.84h0Z"/>
  <path class="cls-1" d="M278.87,158.31c3.05,7.58,6.09,15.16,9.14,22.73.39.98,2,.55,1.6-.44-3.05-7.58-6.09-15.16-9.14-22.73-.39-.98-2-.55-1.6.44h0Z"/>
  <path class="cls-1" d="M289.75,180.03c13.4,16.07,22.84,35.31,28,55.55,2.77,10.89,4.18,22,4.61,33.22.47,12.26.11,24.55-.11,36.81-.25,13.83-.7,27.65-1.97,41.43-.1,1.06,1.56,1.05,1.66,0,1.14-12.46,1.62-24.97,1.89-37.48.26-12.43.6-24.9.29-37.34-.28-11.44-1.43-22.82-4.02-33.98-2.39-10.27-5.87-20.29-10.37-29.83-5-10.59-11.3-20.55-18.81-29.55-.68-.82-1.85.36-1.17,1.17h0Z"/>
  <path class="cls-1" d="M240.69,139.87c-1.6,14.6-3.94,29.1-7.01,43.46-.22,1.04,1.37,1.48,1.6.44,3.11-14.5,5.46-29.16,7.07-43.9.12-1.06-1.54-1.05-1.66,0h0Z"/>
  <path class="cls-1" d="M234.24,188.27c4.37-5.82,8.74-11.65,13.1-17.47.64-.85-.8-1.68-1.43-.84-4.37,5.82-8.74,11.65-13.1,17.47-.64.85.8,1.68,1.43.84h0Z"/>
  <path class="cls-1" d="M246.16,171.11c10.99-.59,21.56-4.45,30.49-10.86.86-.62.03-2.05-.84-1.43-8.69,6.24-18.95,10.06-29.65,10.63-1.06.06-1.07,1.71,0,1.66h0Z"/>
  <path class="cls-1" d="M245.13,177.24c.5,7.74,1.75,15.42,3.76,22.92.28,1.03,1.87.59,1.6-.44-1.97-7.36-3.2-14.88-3.7-22.48-.07-1.06-1.73-1.07-1.66,0h0Z"/>
  <path class="cls-1" d="M251.13,202.26c10.63-10.19,21.46-20.61,34.74-27.3.95-.48.11-1.91-.84-1.43-13.4,6.75-24.35,17.28-35.08,27.56-.77.74.4,1.91,1.17,1.17h0Z"/>
  <path class="cls-1" d="M236.34,151.59c-9.26-1.14-16.9,7.83-17.23,16.51-.04,1.07,1.62,1.06,1.66,0,.29-7.88,7.22-15.89,15.57-14.86,1.06.13,1.05-1.53,0-1.66h0Z"/>
  <path class="cls-1" d="M221.69,160.22c-7.65-1.39-15.41-2.76-23.22-2.44s-15.02,2.6-21.41,7.08c-3.19,2.24-6.14,4.8-9.1,7.33-3.41,2.92-6.82,5.85-10.24,8.77-6.7,5.74-13.4,11.48-20.09,17.22-7.65,6.55-15.29,13.1-22.94,19.66-.81.7.37,1.86,1.17,1.17,13.08-11.21,26.16-22.42,39.24-33.63,6.39-5.48,12.68-11.12,19.23-16.4,3.04-2.45,6.26-4.72,9.82-6.36s7.41-2.58,11.29-2.98c8.65-.9,17.32.61,25.8,2.16,1.04.19,1.49-1.41.44-1.6h0Z"/>
  <path class="cls-1" d="M248.08,313.88c-6.48-10-13.01-20.03-20.71-29.15-3.77-4.46-7.83-8.69-12.28-12.48-4.8-4.08-10.08-7.46-15.55-10.58-6.79-3.88-13.61-7.68-20.42-11.52-.93-.52-1.77.91-.84,1.43,5.99,3.37,11.97,6.74,17.96,10.12,5.57,3.14,11.1,6.37,16.09,10.4,9.02,7.29,16.4,16.38,23.08,25.8,3.9,5.5,7.57,11.16,11.24,16.81.58.89,2.01.06,1.43-.84h0Z"/>
  <path class="cls-1" d="M239.03,242.6c-7.22,10.84-14.44,21.68-21.66,32.52-.59.89.84,1.72,1.43.84,7.22-10.84,14.44-21.68,21.66-32.52.59-.89-.84-1.72-1.43-.84h0Z"/>
  <path class="cls-1" d="M188.61,198.47c-6.64,11.98-13.28,23.96-19.93,35.94-.52.93.91,1.77,1.43.84,6.64-11.98,13.28-23.96,19.93-35.94.52-.93-.91-1.77-1.43-.84h0Z"/>
  <path class="cls-1" d="M179.48,252.95c-1.05,9.23-3.79,18.15-6.93,26.85-3.29,9.11-6.83,18.13-10.27,27.18-1.98,5.22-3.96,10.44-5.95,15.65-.38,1,1.22,1.43,1.6.44,3.55-9.35,7.1-18.69,10.65-28.04,3.36-8.84,6.9-17.65,9.47-26.76,1.42-5.02,2.49-10.13,3.08-15.32.12-1.06-1.54-1.05-1.66,0h0Z"/>
  <path class="cls-1" d="M136.85,293.27c7.65,14.79,16.19,29.11,25.61,42.84,2.65,3.86,5.37,7.68,8.16,11.45.63.85,2.07.02,1.43-.84-9.86-13.34-18.88-27.3-27.01-41.76-2.32-4.14-4.57-8.31-6.76-12.53-.49-.95-1.92-.11-1.43.84h0Z"/>
  <path class="cls-1" d="M142.84,223.34c15.65,1.34,28.24,12.43,38.32,23.56,3.05,3.36,5.97,6.83,8.89,10.3.69.82,1.86-.36,1.17-1.17-10.24-12.15-21.03-25.07-36.09-31.3-3.93-1.63-8.06-2.68-12.3-3.04-1.06-.09-1.06,1.57,0,1.66h0Z"/>
  <path class="cls-1" d="M76.67,223.53c18.06-.29,36.12-.58,54.18-.88,5.14-.08,10.27-.17,15.41-.25,1.07-.02,1.07-1.67,0-1.66-18.06.29-36.12.58-54.18.88-5.14.08-10.27.17-15.41.25-1.07.02-1.07,1.67,0,1.66h0Z"/>
  <path class="cls-1" d="M78.06,221.93c-3.84.99-8.07-1.41-11.23,1.89-1.02,1.07-1.75,2.54-1.52,4.05.26,1.65,1.55,2.63,2.96,3.33,7.77,3.89,16.55,5.84,25.24,5.72,4.99-.07,9.96-.84,14.75-2.24,1.02-.3.59-1.9-.44-1.6-7.35,2.16-15.13,2.75-22.72,1.64-3.66-.53-7.26-1.45-10.74-2.71-1.84-.67-3.66-1.43-5.41-2.32-1.58-.81-2.59-2.1-1.61-3.83,2.28-3.99,7.58-1.41,11.16-2.33,1.03-.27.59-1.86-.44-1.6h0Z"/>
  <path class="cls-1" d="M100.98,236.62c-5.11,2.11-6.26,8.24-6.36,13.19-.07,3.25.29,6.53.79,9.73.56,3.52,1.47,7.01,3.02,10.24.78,1.62,1.84,3.06,2.69,4.64.93,1.71,1.1,3.54,1.03,5.46-.12,3.36-.7,6.85,1.14,9.89,3.06,5.06,10.07,7.41,15.66,7.75,6.88.41,13.68-2.14,18.69-6.83.78-.73-.39-1.9-1.17-1.17-4.17,3.9-9.64,6.2-15.35,6.37-5.4.17-11.8-1.57-15.5-5.74-2.4-2.7-2.03-6.08-1.85-9.42.08-1.39.1-2.78-.14-4.16-.28-1.58-1.02-2.95-1.87-4.29-3.6-5.71-4.89-12.13-5.38-18.79-.35-4.84-.39-13.02,5.04-15.26.97-.4.55-2-.44-1.6h0Z"/>
  <path class="cls-1" d="M124.01,282.01c6.16,4.88,13.56,7.92,21.42,8.47,1.06.08,1.06-1.58,0-1.66-7.39-.52-14.46-3.4-20.25-7.99-.83-.66-2.01.51-1.17,1.17h0Z"/>
  <path class="cls-1" d="M119.35,263.67c-7.17-.82-12.04,6.76-15.18,12.07-.54.92.89,1.75,1.43.84,1.68-2.85,3.51-5.69,5.9-8,2.14-2.07,4.78-3.59,7.85-3.24,1.06.12,1.05-1.54,0-1.66h0Z"/>
  <path class="cls-1" d="M116.19,249.38c-6.89-1.4-13.8,2.71-16.76,8.91-.46.96.97,1.8,1.43.84,2.63-5.5,8.7-9.41,14.89-8.15,1.04.21,1.49-1.39.44-1.6h0Z"/>
  <path class="cls-1" d="M101.25,284.97c-4.99.61-9.7-1.86-14.17-3.74-4.67-1.97-9.35-3.93-14.02-5.9-8.73-3.67-18.17-6.82-25.76-12.63-.85-.65-1.67.79-.84,1.43,3.81,2.91,8.07,5.08,12.45,7s9.14,3.87,13.71,5.8c4.83,2.03,9.65,4.06,14.48,6.09,4.47,1.88,9.16,4.22,14.15,3.6,1.04-.13,1.06-1.79,0-1.66h0Z"/>
  <path class="cls-1" d="M19.04,176.73c-6.46,3.82-8.12,12.19-8.13,19.13-.01,8.41,2.03,17.11,5.9,24.58,2.17,4.18,5.01,8.01,8.55,11.14.8.7,1.97-.46,1.17-1.17-5.96-5.28-9.78-12.5-11.9-20.1-2.02-7.25-3.01-15.43-1.05-22.81.99-3.74,2.89-7.32,6.3-9.35.92-.54.08-1.98-.84-1.43h0Z"/>
  <path class="cls-1" d="M21.2,178.11c7.24-1.78,12.59,6.03,13.58,12.23,1.36,8.48-2.08,16.77-5.13,24.49-1.72,4.36-3.36,8.77-4.19,13.4-.19,1.04,1.41,1.49,1.6.44,1.65-9.17,6.52-17.3,8.63-26.33,1.83-7.81,1.6-16.99-4.72-22.78-2.78-2.55-6.46-3.97-10.21-3.04-1.03.26-.6,1.85.44,1.6h0Z"/>
  <path class="cls-1" d="M30,194.08c-1.78,3.98-4.12,7.7-7,10.98-.7.8.47,1.97,1.17,1.17,2.98-3.38,5.42-7.2,7.26-11.32.18-.41.12-.89-.3-1.13-.35-.21-.95-.11-1.13.3h0Z"/>
  <path class="cls-1" d="M26.3,183.78c-4.29,2.38-7.79,6.03-10.19,10.3-.52.93.91,1.77,1.43.84,2.26-4.03,5.54-7.45,9.59-9.71.93-.52.1-1.95-.84-1.43h0Z"/>
  <path class="cls-1" d="M67.65,167.37l-6.01-.64-2.79-.29c-.78-.08-1.09-.03-1.56.58-1.74,2.27-1.65,5.54-.6,8.08,1.27,3.07,3.9,5.23,6.36,7.34,3.06,2.63,6.13,5.25,9.19,7.88.81.69,1.98-.48,1.17-1.17-3.89-3.33-7.91-6.56-11.66-10.05-2.83-2.64-6.11-7.64-2.95-11.32l-.59.24,9.44,1c1.06.11,1.05-1.55,0-1.66h0Z"/>
  <path class="cls-1" d="M68.51,168.57c3.43,5.97,5.3,12.72,5.57,19.6.04,1.06,1.7,1.07,1.66,0-.28-7.17-2.22-14.21-5.8-20.43-.53-.92-1.96-.09-1.43.84h0Z"/>
  <path class="cls-1" d="M293.43,101.74c1.88-1.11,4.13-.7,5.87.48,1.88,1.27,3.09,3.41,3.09,5.68,0,1.07,1.65,1.07,1.66,0,0-2.88-1.54-5.52-3.91-7.11-2.23-1.5-5.17-1.88-7.55-.48-.92.54-.09,1.97.84,1.43h0Z"/>
  <path class="cls-1" d="M282.62,94.21c-3.76-1.68-6.41-5.08-7.75-8.91-1.46-4.17-1.25-8.28.25-12.38.75-2.04.83-4.09-.5-5.9-1.12-1.51-2.82-2.49-4.51-3.22-5.23-2.23-10.71-3.98-16.04-5.95-6.39-2.36-12.78-4.71-19.17-7.07-1-.37-1.43,1.23-.44,1.6,11.22,4.14,22.45,8.26,33.67,12.41,1.9.7,4.06,1.58,5.25,3.31,1.48,2.14,0,4.37-.59,6.54-1.06,3.84-.71,8.04.73,11.73,1.54,3.96,4.34,7.51,8.28,9.27.97.43,1.81-1,.84-1.43h0Z"/>
  <path class="cls-1" d="M256.14,11.39c2.23,8.31,4.93,16.49,8.14,24.47,1.01,2.52,2.19,7.31,5.71,7.14,3.89-.19,2.37-5.41,1.99-7.71-.83-5.03-1.66-10.07-2.49-15.1-.17-1.05-1.77-.6-1.6.44.78,4.71,1.56,9.42,2.33,14.13.19,1.14.38,2.27.56,3.41.15.96.64,2.85-.72,3.16-2,.45-3.02-3.08-3.56-4.39-3.48-8.47-6.39-17.16-8.76-26-.28-1.03-1.87-.59-1.6.44h0Z"/>
  <path class="cls-1" d="M297.5,47.13c.88,2.41,1.75,4.81,2.63,7.22.15.42.56.7,1.02.58.41-.11.73-.6.58-1.02-.88-2.41-1.75-4.81-2.63-7.22-.15-.42-.56-.7-1.02-.58-.41.11-.73.6-.58,1.02h0Z"/>
  <path class="cls-1" d="M256.82,66.41c1.11,2.42,2.22,4.84,3.33,7.26.19.41.77.51,1.13.3.42-.24.48-.73.3-1.13-1.11-2.42-2.22-4.84-3.33-7.26-.19-.41-.77-.51-1.13-.3-.42.24-.48.73-.3,1.13h0Z"/>
  <path class="cls-1" d="M233.89,58.98c-2.87.37-5.74.74-8.6,1.11-.45.06-.82.34-.83.83,0,.41.38.88.83.83,4.08-.46,8.1-1.29,12.02-2.49,1.02-.31.58-1.91-.44-1.6-3.78,1.16-7.66,1.99-11.58,2.43v1.66c2.87-.37,5.74-.74,8.6-1.11.45-.06.82-.34.83-.83,0-.4-.38-.89-.83-.83h0Z"/>
  <path class="cls-1" d="M252.93,77.23l-.82.91c-.08.08-.14.16-.17.27-.05.1-.08.21-.07.32,0,.11.02.22.07.32.03.1.09.19.17.27.16.14.37.25.59.24l.22-.03c.14-.04.26-.11.37-.21l.82-.91c.08-.08.14-.16.17-.27.05-.1.08-.21.07-.32,0-.11-.02-.22-.07-.32-.03-.1-.09-.19-.17-.27-.16-.14-.37-.25-.59-.24l-.22.03c-.14.04-.26.11-.37.21h0Z"/>
  <path class="cls-1" d="M237.33,67.41l-.83,1.82c-.1.21-.15.41-.08.64.05.19.2.4.38.5.19.1.43.15.64.08.19-.06.41-.19.5-.38l.83-1.82c.1-.21.15-.41.08-.64-.05-.19-.2-.4-.38-.5-.19-.1-.43-.15-.64-.08-.19.06-.41.19-.5.38h0Z"/>
  <path class="cls-1" d="M238.38,78.35c-2.34,2.52-4.47,5.22-6.36,8.09s-3.88,5.98-4.73,9.32c-.69,2.71-.46,5.78,1.82,7.66,1.69,1.39,4.09,1.71,5.69.03.74-.77-.43-1.95-1.17-1.17-1.47,1.54-3.71.12-4.53-1.43-1.32-2.51-.05-5.76,1.12-8.07,2.43-4.83,5.65-9.3,9.32-13.26.72-.78-.44-1.96-1.17-1.17h0Z"/>
  <path class="cls-1" d="M265.1,99.51c-1.39,5.48-6.55,10.06-12.41,9.41-1.06-.12-1.05,1.54,0,1.66,6.56.73,12.45-4.51,14.01-10.63.26-1.03-1.33-1.48-1.6-.44h0Z"/>
  <path class="cls-1" d="M13.69,100.43c-3.45-2.48-7.86.33-9.4,3.71-2.27,4.97-.54,11.03.42,16.12,2.26,11.91,4.94,23.73,8.06,35.44,1.78,6.69,3.71,13.35,5.77,19.96.32,1.01,1.92.58,1.6-.44-3.31-10.62-6.27-21.34-8.85-32.16-1.28-5.34-2.47-10.71-3.57-16.09-.55-2.7-1.08-5.39-1.59-8.1s-1.07-5.28-1.21-7.96.12-5.67,1.98-7.75c1.51-1.7,3.94-2.73,5.96-1.28.87.62,1.7-.81.84-1.43h0Z"/>
  <path class="cls-1" d="M29.48,221.53c1.9,7.03,3.79,14.06,5.69,21.09.92,3.41,1.8,6.84,2.77,10.24.67,2.35,1.53,4.76,3.01,6.73,1.32,1.76,3.22,3.01,5.49,2.88,1.51-.08,2.94-.71,4.32-1.28s2.84-1.21,4.24-1.87c5.93-2.77,11.6-6.1,16.93-9.9,2.78-1.99,5.86-4.04,8.09-6.66,1.86-2.18,3.28-5.06,2.09-7.9-.41-.97-2.01-.54-1.6.44,1.13,2.68-.6,5.27-2.46,7.15-2.02,2.04-4.46,3.73-6.78,5.4-4.78,3.43-9.83,6.48-15.11,9.08-2.61,1.29-5.3,2.63-8.08,3.52-2.57.83-4.59-.03-6.07-2.22-1.31-1.94-2.04-4.23-2.65-6.47-.85-3.11-1.68-6.23-2.52-9.35-1.92-7.11-3.84-14.22-5.75-21.33-.28-1.03-1.88-.59-1.6.44h0Z"/>
  <path class="cls-1" d="M13.94,100.38c7.04-.98,14.07-1.96,21.11-2.94l5.16-.72c1.77-.25,3.64-.68,5.42-.48,2.7.3,4.3,2.52,5.31,4.85,1.09,2.53,1.59,5.28,2.18,7.95.79,3.57,1.58,7.13,2.37,10.7,1.52,6.89,3.05,13.78,4.57,20.66,1.74,7.86,3.48,15.72,5.22,23.58.23,1.04,1.83.6,1.6-.44-3.27-14.75-6.53-29.5-9.8-44.25-.79-3.57-1.58-7.13-2.37-10.7-.62-2.82-1.18-5.69-2.35-8.35-.9-2.05-2.25-4.06-4.34-5.05-2.9-1.37-6.48-.33-9.49.09-8.35,1.16-16.69,2.33-25.04,3.49-1.05.15-.6,1.74.44,1.6h0Z"/>
  <path class="cls-1" d="M73.19,193.64c.21,8.51,1.95,16.93,5.22,24.79.4.97,2.01.54,1.6-.44-3.22-7.73-4.96-15.98-5.16-24.35-.03-1.06-1.68-1.07-1.66,0h0Z"/>
  <path class="cls-1" d="M4.42,101.57c-2.6,3.59-4.08,7.9-4.37,12.32-.33,4.97,1.2,9.75,2.49,14.49,2.88,10.55,5.76,21.11,8.64,31.66,1.61,5.92,3.23,11.83,4.84,17.75.28,1.03,1.88.59,1.6-.44-2.77-10.15-5.54-20.31-8.31-30.46-1.37-5.04-2.75-10.07-4.12-15.11s-3.19-9.89-3.49-14.95c-.31-5.13,1.14-10.26,4.16-14.42.63-.86-.81-1.69-1.43-.84h0Z"/>
  <path class="cls-1" d="M28.33,231.36c1.84,7.26,3.68,14.51,5.52,21.77.76,3,1.31,6.36,3.16,8.92,1.45,2.01,3.93,3.42,6.42,2.61,1.01-.33.58-1.93-.44-1.6-2.94.95-5.02-2.08-5.9-4.44-1.06-2.84-1.63-5.9-2.38-8.83-1.6-6.29-3.19-12.58-4.79-18.86-.26-1.03-1.86-.6-1.6.44h0Z"/>
  <path class="cls-1" d="M16.54,99.52c-1.72,2.86-.41,6.46,1.97,8.52,3.33,2.87,7.86,1.79,11.8,1.24s8.53.1,11.35-2.98c2.01-2.2,2.85-5.9.66-8.26-.73-.78-1.9.39-1.17,1.17,1.8,1.94.43,5.34-1.51,6.66-2.64,1.8-6.3,1.34-9.33,1.75s-7.15,1.58-10.05-.31c-2.17-1.42-3.75-4.52-2.29-6.95.55-.92-.88-1.75-1.43-.84h0Z"/>
  <path class="cls-1" d="M56.77,251.23c4.35-2.47,8.7-4.95,13.04-7.42.93-.53.09-1.96-.84-1.43-4.35,2.47-8.7,4.95-13.04,7.42-.93.53-.09,1.96.84,1.43h0Z"/>
  <path class="cls-1" d="M20.18,137.01c1.07,0,1.07-1.66,0-1.66s-1.07,1.66,0,1.66h0Z"/>
  <path class="cls-1" d="M19.92,132.86c4.69,15.66,9.98,31.14,15.87,46.39.38.98,1.98.56,1.6-.44-5.88-15.25-11.17-30.73-15.87-46.39-.31-1.02-1.91-.58-1.6.44h0Z"/>
  <path class="cls-1" d="M22.66,131.86c8.59-.91,17.1-2.37,25.49-4.4,1.04-.25.6-1.85-.44-1.6-8.25,1.99-16.61,3.45-25.05,4.34-1.05.11-1.06,1.77,0,1.66h0Z"/>
  <path class="cls-1" d="M39.34,179.39c5.69-1.7,11.37-3.41,17.06-5.11,1.02-.31.58-1.91-.44-1.6-5.69,1.7-11.37,3.41-17.06,5.11-1.02.31-.58,1.91.44,1.6h0Z"/>
  <path class="cls-1" d="M47.91,127.31c2.17,12.75,5.36,25.3,9.57,37.53.34,1,1.95.57,1.6-.44-4.21-12.23-7.4-24.78-9.57-37.53-.18-1.05-1.78-.6-1.6.44h0Z"/>
  <g class="cls-3">
    <path class="cls-1" d="M31.09,143.12c1.68-2.53,3.83-4.65,6.44-6.22l-1.22-.94c-.88,2.35-1.77,4.71-2.65,7.06-.32.86.82,1.26,1.38.81,2.75-2.2,5.5-4.39,8.26-6.59l-1.3-1c-3.55,6.43-7.1,12.86-10.65,19.29-.45.81.63,1.69,1.3,1,3.31-3.34,6.61-6.67,9.92-10.01l-1.41-.59c-.72,5.76-2.4,11.37-5,16.57-.4.8.63,1.74,1.3,1,3.16-3.47,6.32-6.93,9.48-10.4l-1.38-.81c-.68,4.08-1.74,8.08-3.2,11.95-.27.73.63,1.23,1.22.94,2.09-1.07,4.18-2.13,6.27-3.2l-1.22-.94c-.2,1.48-.63,2.85-1.35,4.16-.52.93.91,1.77,1.43.84.79-1.43,1.3-2.94,1.52-4.56.1-.71-.52-1.29-1.22-.94-2.09,1.07-4.18,2.13-6.27,3.2l1.22.94c1.46-3.87,2.53-7.87,3.2-11.95.12-.75-.77-1.48-1.38-.81-3.16,3.47-6.32,6.93-9.48,10.4l1.3,1c2.74-5.47,4.47-11.33,5.22-17.4.09-.74-.95-1.05-1.41-.59-3.31,3.34-6.61,6.67-9.92,10.01l1.3,1c3.55-6.43,7.1-12.86,10.65-19.29.48-.87-.59-1.57-1.3-1-2.75,2.2-5.5,4.39-8.26,6.59l1.38.81c.88-2.35,1.77-4.71,2.65-7.06.26-.69-.63-1.29-1.22-.94-2.85,1.72-5.19,4.05-7.03,6.81-.59.89.84,1.72,1.43.84h0Z"/>
  </g>
  <path class="cls-2" d="M64.63,219.87c2.04,2.96.17,8.37-4.17,12.07-4.34,3.7-9.51,4.31-11.55,1.34-2.04-2.96-.17-8.37,4.17-12.07s9.51-4.31,11.55-1.34Z"/>
</svg>