<?xml version="1.0" encoding="UTF-8"?>
<svg id="Lag_1" data-name="Lag 1" xmlns="http://www.w3.org/2000/svg" viewBox="0 0 191.99 193.64">
  <defs>
    <style>
      .cls-1 {
        fill: #bf0203;
      }

      .cls-2 {
        fill: none;
        stroke: #bf0203;
        stroke-miterlimit: 10;
        stroke-width: 1.5px;
      }
    </style>
  </defs>
  <path class="cls-1" d="M33.38,38.24c-8.4,31.84-17.01,63.63-25.84,95.35-2.49,8.93-4.99,17.85-7.51,26.77-.26.93,1.18,1.33,1.45.4,8.95-31.69,17.69-63.44,26.21-95.25,2.4-8.95,4.78-17.91,7.14-26.87.25-.93-1.2-1.33-1.45-.4h0Z"/>
  <path class="cls-1" d="M2.17,161.74c30.96,7.63,61.79,15.76,92.48,24.4,8.7,2.45,17.39,4.94,26.07,7.47.93.27,1.33-1.18.4-1.45-30.61-8.92-61.36-17.35-92.25-25.26-8.76-2.24-17.52-4.45-26.3-6.61-.94-.23-1.34,1.22-.4,1.45h0Z"/>
  <path class="cls-1" d="M155.78,66.12c-3.5,16.53-7.31,32.99-11.43,49.37-4.12,16.38-8.56,32.69-13.31,48.9-2.69,9.2-5.49,18.37-8.38,27.5-.29.92,1.16,1.32,1.45.4,5.09-16.11,9.89-32.31,14.36-48.6s8.64-32.66,12.5-49.11c2.19-9.33,4.27-18.69,6.25-28.06.2-.94-1.25-1.34-1.45-.4h0Z"/>
  <path class="cls-1" d="M35.8,38.76c30.2,8.09,60.56,15.56,91.07,22.37,8.51,1.9,17.03,3.75,25.57,5.55.94.2,1.34-1.25.4-1.45-30.59-6.46-61.04-13.55-91.33-21.29-8.45-2.16-16.88-4.37-25.31-6.63-.93-.25-1.33,1.2-.4,1.45h0Z"/>
  <path class="cls-1" d="M46.46,52.53c-7.19,19.35-12.83,39.26-16.81,59.51-1.13,5.76-2.13,11.55-3,17.36-.14.94,1.3,1.35,1.45.4,3.06-20.41,7.75-40.57,14.05-60.22,1.79-5.59,3.72-11.14,5.76-16.65.34-.91-1.11-1.3-1.45-.4h0Z"/>
  <path class="cls-1" d="M48.19,53.92c5.94.07,11.65,2.99,17.15,4.94s11.08,3.77,16.68,5.46c11.43,3.44,23.03,6.32,34.74,8.64,6.59,1.3,13.22,2.42,19.87,3.37.94.13,1.35-1.31.4-1.45-23.8-3.38-47.26-9.06-69.95-16.99-3.12-1.09-6.2-2.26-9.31-3.38s-6.27-2.05-9.59-2.09c-.97-.01-.97,1.49,0,1.5h0Z"/>
  <path class="cls-1" d="M135.56,75.99c-5.5,18.95-10.64,38.01-15.41,57.16-1.35,5.43-2.68,10.86-3.97,16.3-.22.94,1.22,1.34,1.45.4,4.57-19.2,9.5-38.31,14.8-57.32,1.5-5.39,3.03-10.76,4.59-16.13.27-.93-1.18-1.33-1.45-.4h0Z"/>
  <path class="cls-1" d="M27.27,132.52c11.97,2.84,23.94,5.69,35.92,8.53,11.58,2.75,23.15,5.89,34.92,7.72,6.57,1.02,13.21,1.55,19.85,1.14.96-.06.97-1.56,0-1.5-11.88.74-23.6-1.57-35.11-4.25-11.77-2.74-23.52-5.58-35.28-8.37-6.63-1.58-13.27-3.15-19.9-4.73-.94-.22-1.34,1.22-.4,1.45h0Z"/>
  <path class="cls-1" d="M30.31,118.55c14.9-5.73,28.69-14.08,40.68-24.63l-1.25-.33c3.01,9.86,7.45,19.23,13.18,27.8.22.33.67.5,1.03.27,5.22-3.31,10.44-6.62,15.66-9.94l-1.03-.27c7.05,10.25,13.5,20.91,19.31,31.91.45.85,1.75.1,1.3-.76-5.81-11-12.26-21.66-19.31-31.91-.22-.32-.66-.5-1.03-.27-5.22,3.31-10.44,6.62-15.66,9.94l1.03.27c-5.66-8.47-10.05-17.71-13.03-27.44-.17-.56-.83-.71-1.25-.33-11.78,10.37-25.37,18.61-40.02,24.24-.89.34-.5,1.79.4,1.45h0Z"/>
  <path class="cls-1" d="M149.68,30.58c9.72-4.55,18.61-10.69,26.44-18.01.71-.66-.36-1.72-1.06-1.06-7.74,7.24-16.53,13.28-26.14,17.77-.87.41-.11,1.7.76,1.3h0Z"/>
  <path class="cls-1" d="M147.88,45.68c8.73,4.76,17.95,8.54,27.51,11.27.93.27,1.33-1.18.4-1.45-9.44-2.69-18.54-6.42-27.15-11.12-.85-.46-1.61.83-.76,1.3h0Z"/>
  <ellipse class="cls-2" cx="182.64" cy="7.87" rx="7.83" ry="7.12"/>
  <ellipse class="cls-2" cx="145.65" cy="37.35" rx="7.83" ry="7.12"/>
  <ellipse class="cls-2" cx="183.42" cy="54.72" rx="7.83" ry="7.12"/>
  <ellipse class="cls-2" cx="109.19" cy="86.55" rx="5.09" ry="5.86"/>
</svg>