<svg width="40" height="100" viewBox="0 0 40 100" fill="none" xmlns="http://www.w3.org/2000/svg">
<path d="M1 22.1249C1 18.6365 2.06945 11.6024 4.23265 7.76423C5.3102 5.85235 6.66322 4.24235 8.27954 3.12589C15.0566 -1.55527 28.5302 2.63234 31.775 4.86526C35.0972 7.15146 36.6402 10.299 37.9892 11.7317C39.2451 13.0657 39.0789 18.5695 38.8115 25.273C38.6654 28.9349 36.6564 30.7403 35.0401 32.336C32.3398 35.0017 28.5626 35.8483 25.1841 37.2953C21.4775 38.883 18.0302 39.0491 14.1129 39.5331C13.1568 39.6512 12.3588 40.0074 11.812 40.6447C9.48627 43.3549 9.91207 49.2458 9.23962 53.8937C9.10188 56.28 8.83452 58.5321 8.42943 61.7089C8.2917 63.9371 8.2917 67.4158 8.2917 71" stroke="#BF0203" stroke-width="2" stroke-linecap="round"/>
<path d="M8 95.1686C8 95.9399 8.38565 97.4942 9.35561 98.6687C9.93993 98.6862 10.7112 97.5293 10.5301 96.5476C10.3489 95.566 9.192 94.7947 8 94" stroke="#BF0203" stroke-width="2" stroke-linecap="round"/>
</svg>
