<?xml version="1.0" encoding="UTF-8"?>
<svg id="Lag_1" data-name="Lag 1" xmlns="http://www.w3.org/2000/svg" viewBox="0 0 331.93 437.08">
  <defs>
    <style>
      .cls-1 {
        fill: #bf0203;
      }
    </style>
  </defs>
  <path class="cls-1" d="M272.51,364.63c-6.6,6.3-13.29,12.67-21.19,17.33s-17.24,6.96-26.67,6.98c-19.18.04-37.61-6.81-56.77-7.34-17.95-.5-36.91,3.12-54.21-3.23-17.28-6.34-27.59-22.76-37.27-37.4-10.8-16.34-20.96-33.11-30.45-50.24s-18.32-34.63-26.46-52.45c-4.09-8.96-8-17.99-11.73-27.1-1.78-4.35-3.7-8.7-5.02-13.22-1.26-4.28-2.01-8.99-.48-13.31,2.65-7.49,11.48-10.18,18.71-8.84,8.95,1.66,16.1,8.39,22.56,14.33,6.78,6.22,12.84,12.93,16.91,21.25,3.47,7.09,5.85,14.66,9.46,21.68s8.73,13.31,16.03,16.71c1.94.91,3.98,1.62,6.07,2.09,1.94.44,4.09.85,6.08.58,3.44-.47,4.81-3.31,4.76-6.49s-1.13-6.74-.02-9.95c.32-.91-1.13-1.31-1.45-.4-1.15,3.32-.13,6.81-.04,10.2.04,1.5-.09,3.19-1.29,4.24-1.79,1.57-4.72.96-6.83.54-8.7-1.7-15.54-7.35-20.07-14.8-4.16-6.83-6.63-14.51-9.84-21.79-1.68-3.8-3.56-7.51-5.93-10.93-2.69-3.87-5.86-7.37-9.23-10.66s-6.77-6.39-10.36-9.34-7.13-5.42-11.27-7.14c-6.69-2.79-14.96-2.87-20.92,1.7-7.09,5.43-6.29,14.73-3.79,22.34,1.49,4.52,3.4,8.91,5.22,13.3s3.78,9.05,5.74,13.55c7.94,18.24,16.6,36.17,25.96,53.73,9.32,17.49,19.33,34.61,29.99,51.32,5.16,8.08,10.37,16.19,16.04,23.93,5.09,6.94,10.79,13.58,17.9,18.52,15.49,10.73,34.73,9.44,52.64,8.89,9.6-.3,19.04-.04,28.54,1.47,9.58,1.52,19.04,3.73,28.67,4.94s18.96,1.35,28.08-1.31,16.26-7.68,23.09-13.51c3.41-2.91,6.65-6,9.89-9.09.7-.67-.36-1.73-1.06-1.06h0Z"/>
  <path class="cls-1" d="M121.49,17.89c-6.1-1.24-12.03,2.05-15.7,6.8-4.3,5.56-5.45,12.83-6.41,19.59-1.14,7.95-2.31,15.95-2.22,24.01s2.24,15.91,3.2,23.95.16,15.94-.16,23.9c-.17,4.05-.21,8.12.15,12.16s1.18,7.65,2.03,11.43c.9,4,1.65,7.98,1.87,12.08s.08,8.07-.08,12.1c-.33,8.36-.66,16.72-.99,25.09-.66,16.65-1.32,33.31-1.97,49.96-.08,2.07-.16,4.14-.25,6.21-.04.97,1.46.96,1.5,0,.64-16.24,1.28-32.48,1.93-48.72.32-8.12.64-16.24.96-24.36s1.01-15.99.1-23.9-3.47-15.14-3.81-22.98c-.33-7.66.54-15.31.66-22.96.06-3.89-.11-7.77-.65-11.63s-1.33-7.49-1.97-11.24c-1.35-8-1.16-16-.27-24.04.49-4.34,1.09-8.68,1.76-12.99.61-3.93,1.36-7.89,2.89-11.58,2.74-6.61,9.3-13,17.04-11.42.94.19,1.35-1.25.4-1.45h0Z"/>
  <path class="cls-1" d="M121.38,18.16c9.66,3.49,13.26,14.57,14.97,23.75,2.43,13.03,3.11,26.45,3.7,39.67,1.2,26.87,1.07,54.1,7.39,80.4.72,3,1.27,6.58,3.38,8.98,1.34,1.53,3.34,2.28,5.35,2.31,4.16.06,8.39-2.77,8.76-7.11.08-.96-1.42-.96-1.5,0-.34,3.96-5,6.26-8.6,5.46-2.49-.56-3.8-2.54-4.57-4.86-.97-2.95-1.61-6.05-2.26-9.08-2.79-12.9-4.11-26.06-4.9-39.21s-1.04-26.18-1.66-39.26c-.6-12.57-1.34-25.31-3.64-37.7-1.82-9.78-5.81-21.1-16.02-24.8-.91-.33-1.3,1.12-.4,1.45h0Z"/>
  <path class="cls-1" d="M166.2,166.07c-.31-18.39-.62-36.77-.92-55.16-.3-18.21-.94-36.45-.67-54.66.13-8.93.47-17.96,1.84-26.8,1.2-7.74,3.29-16.26,8.29-22.5,2.26-2.81,5.32-5.04,9-5.33s7.01,1.02,9.83,3.06c6.41,4.65,8.66,12.9,10.26,20.25,3.81,17.49,4.6,35.44,4.99,53.28.2,9.02.48,18.07.18,27.09s-1.67,17.74-3.14,26.56c-1.41,8.46-2.75,17.02-2.38,25.62.29,6.6,1.03,16.67,8.39,19.31,2.77.99,5.82.23,7.73-2.02s2.57-5.18,2.96-7.97c.58-4.07.86-8.19,1.32-12.27.52-4.53,1.08-9.06,1.69-13.58,2.42-18.04,5.5-35.98,8.84-53.86,1.66-8.88,3.38-17.76,5.11-26.62s2.95-17.18,5.81-25.35c2.26-6.45,6.39-15.29,14.47-15.11,7.53.17,12.72,7.02,14.36,13.75.96,3.93,1.06,8.01.99,12.04-.08,4.49-.31,8.99-.56,13.48-.5,9.06-1.22,18.12-2.06,27.16s-1.78,18.07-2.74,27.1-1.87,17.78-3.78,26.53-4.39,16.83-6.34,25.31c-.94,4.09-1.74,8.22-2.27,12.39-.45,3.52-1.28,7.84.19,11.22,1.17,2.69,3.91,4.03,6.77,3.83,3.14-.23,5.72-1.96,7.54-4.46,2.2-3.03,3.23-6.77,4.4-10.27,1.45-4.33,2.89-8.65,4.34-12.98,5.7-17.06,11.31-34.15,17.11-51.17,2.41-7.06,5.05-14.15,9.12-20.45,2-3.09,4.35-5.96,7.11-8.4s7.41-5.08,10.61-1.8c2.61,2.67,4.05,6.81,4.89,10.37.9,3.81,1.1,7.76.86,11.67-.52,8.29-3.19,16.21-5.87,24-1.4,4.06-2.81,8.11-3.96,12.24s-2.03,8.63-2.78,13c-1.44,8.45-3.04,16.8-5.26,25.09-4.34,16.16-10.03,31.95-13.45,48.35-1.63,7.78-2.71,15.69-2.9,23.64-.02.97,1.48.97,1.5,0,.41-16.96,4.99-33.38,9.84-49.52,2.45-8.14,4.97-16.26,7.1-24.49s3.58-16.98,5.13-25.55,4.45-17.04,7.29-25.46c2.57-7.64,4.83-15.47,4.96-23.59.06-3.75-.33-7.54-1.36-11.16-.95-3.35-2.45-7.12-4.92-9.65-5.66-5.79-13.52,1.97-17.08,6.37-4.61,5.69-7.69,12.42-10.24,19.24-2.97,7.93-5.49,16.04-8.17,24.07-2.94,8.81-5.89,17.62-8.83,26.43-1.45,4.33-2.89,8.65-4.34,12.98-1.37,4.09-2.56,8.29-4.2,12.27-1.38,3.35-3.57,6.72-7.34,7.56-1.52.34-3.24.27-4.6-.56-1.72-1.05-2.35-3-2.47-4.91-.28-4.13.53-8.51,1.25-12.56.76-4.31,1.76-8.57,2.84-12.81,2.17-8.52,4.64-16.98,6.16-25.66s2.33-17.67,3.26-26.52c1.92-18.3,3.73-36.63,4.53-55.02.34-7.86,1.05-16.34-2.12-23.76-2.5-5.86-8.31-10.98-14.99-10.83-7.34.17-11.63,6.97-14.18,13.02-3.33,7.92-4.68,16.52-6.33,24.91-3.53,17.98-7.01,35.96-10.06,54.03-3.03,17.96-5.61,35.99-7.4,54.12-.3,3.03-.73,6.49-2.66,8.97-2.34,3.01-6.4,2.61-9.02.17-3.07-2.85-3.79-7.61-4.28-11.56-.54-4.35-.55-8.76-.26-13.13.61-8.98,2.48-17.8,3.81-26.69s1.74-17.67,1.69-26.59c-.1-18.01-.31-36.19-2.49-54.09-1.02-8.38-2.24-17.04-4.95-25.06-2.26-6.68-6.29-12.93-13.14-15.52-16.64-6.29-23.32,16.53-25.11,28.41-2.68,17.79-1.92,36.04-1.62,53.96l.93,55.66c.15,8.99.3,17.97.45,26.96.02.96,1.52.97,1.5,0h0Z"/>
  <path class="cls-1" d="M272.86,365.18c4.32-15.25,8.74-30.48,12.91-45.78s7.74-29.91,9.96-45.19c1.23-8.47,2.01-17.01,2.17-25.57.02-.97-1.48-.97-1.5,0-.57,30.94-9.32,60.88-17.69,90.43-2.43,8.57-4.86,17.14-7.29,25.71-.26.93,1.18,1.33,1.45.4h0Z"/>
  <path class="cls-1" d="M246.21,74.77c6.95-.43,13.91.87,20.21,3.84.87.41,1.63-.88.76-1.3-6.54-3.08-13.75-4.49-20.97-4.04-.96.06-.97,1.56,0,1.5h0Z"/>
  <path class="cls-1" d="M303.45,117.41c5.17,1.82,10.03,4.41,14.45,7.66.78.57,1.53-.73.76-1.3-4.52-3.33-9.52-5.95-14.81-7.81-.91-.32-1.3,1.13-.4,1.45h0Z"/>
  <path class="cls-1" d="M310.33,162.04c-5.77-3.65-11.55-7.3-17.32-10.95-.82-.52-1.57.78-.76,1.3,5.77,3.65,11.55,7.3,17.32,10.95.82.52,1.57-.78.76-1.3h0Z"/>
  <path class="cls-1" d="M235.04,122.43c8.25.12,16.45,1.15,24.48,3.07.94.22,1.34-1.22.4-1.45-8.15-1.95-16.5-3-24.88-3.12-.97-.01-.97,1.49,0,1.5h0Z"/>
  <path class="cls-1" d="M200.76,57.62c-9.01-1.43-18.12-2.02-27.23-1.75-.96.03-.97,1.53,0,1.5,8.98-.27,17.96.29,26.83,1.69.94.15,1.35-1.3.4-1.45h0Z"/>
  <path class="cls-1" d="M202.23,111.31c-9.37.28-18.74.56-28.11.84-.96.03-.97,1.53,0,1.5,9.37-.28,18.74-.56,28.11-.84.96-.03.97-1.53,0-1.5h0Z"/>
  <path class="cls-1" d="M106.74,71.42c8.42-.58,16.82-1.32,25.21-2.22.95-.1.96-1.6,0-1.5-8.39.9-16.79,1.64-25.21,2.22-.96.07-.97,1.57,0,1.5h0Z"/>
  <path class="cls-1" d="M135.44,122.71c-9.17-.31-18.35-.52-27.53-.63-.97-.01-.97,1.49,0,1.5,9.18.11,18.35.32,27.53.63.97.03.96-1.47,0-1.5h0Z"/>
  <path class="cls-1" d="M56.72,221.17c-9.65,3.31-14.71,13.14-23.54,17.75-.86.45-.1,1.74.76,1.3,8.69-4.54,13.73-14.35,23.18-17.6.91-.31.52-1.76-.4-1.45h0Z"/>
  <path class="cls-1" d="M142.99,227.88c13.26,10.08,30.2,12.8,46.43,13.5s33.92-.73,50.66,2.28c9.35,1.69,18.43,4.83,26.26,10.32.79.56,1.54-.74.76-1.3-13.9-9.74-31.21-11.96-47.77-12.45s-33.68.77-50.21-2.68c-9.12-1.9-17.9-5.31-25.36-10.98-.77-.58-1.52.72-.76,1.3h0Z"/>
  <path class="cls-1" d="M135.08,244.02c5.49,3.81,9.11,9.58,12.44,15.25,3.47,5.91,6.63,11.99,9.5,18.21,5.82,12.66,10.35,25.91,13.53,39.47,1.78,7.62,3.13,15.34,4.04,23.11.11.95,1.61.96,1.5,0-3.31-28.25-12.37-55.76-26.6-80.4-3.64-6.3-7.56-12.72-13.65-16.94-.79-.55-1.55.75-.76,1.3h0Z"/>
  <path class="cls-1" d="M272.41,369.77c-6.44,15.8-10.63,32.46-12.45,49.42-.52,4.86-.84,9.73-.97,14.62-.03.97,1.47.96,1.5,0,.46-16.99,3.3-33.89,8.45-50.09,1.46-4.58,3.1-9.1,4.92-13.55.36-.89-1.09-1.28-1.45-.4h0Z"/>
  <path class="cls-1" d="M97.93,375.02c2.99,7.32,4.88,15.06,5.51,22.95s.29,16.54.23,24.78c-.02,2.41-.03,4.82-.05,7.23,0,1.13,0,2.27-.02,3.4-.02.93-.08,1.86-.87,2.47s.31,1.65,1.06,1.06c1.1-.85,1.27-2.22,1.31-3.53.06-2.21.03-4.43.05-6.64.03-4.49.06-8.98.09-13.46.06-8.45.03-16.85-1.71-25.16-.97-4.62-2.37-9.12-4.15-13.49-.36-.88-1.81-.5-1.45.4h0Z"/>
</svg>