<svg width="57" height="138" viewBox="0 0 57 138" fill="none" xmlns="http://www.w3.org/2000/svg">
<path d="M5 13.9878C6.24495 16.0639 9.22983 21.6035 12.8634 29.9546C14.8693 34.5646 15.9946 39.0047 17.742 43.1829C19.4913 47.3657 21.4844 52.2122 24.3642 59.3427C26.4272 64.4507 27.9941 69.2588 29.6178 73.4369C31.1889 77.4799 32.4939 81.7777 33.4951 85.9559C34.5238 90.2485 36.2438 94.2966 37.9912 97.4419C39.9432 100.956 41.4936 87.0565 43.1173 78.7001C44.7883 70.1 45.4984 62.3525 46.7434 54.1839C47.8186 47.1291 48.9933 39.4012 49.372 32.0985C49.6818 26.1247 50.4932 21.3114 50.8719 16.2673C51.045 13.9629 51.7457 11.5675 51.9969 8.9646C52.2154 6.70099 40.8561 5.64187 24.3605 5.81401C15.718 5.90419 10.5273 7.72836 6.64994 8.24476C5.44231 8.4056 5.98996 9.79398 6.49244 10.8424C8.57415 15.1861 11.2398 19.1832 12.8672 23.5335C15.0061 29.2511 17.7345 33.4338 19.9919 37.9667C22.0476 42.0946 23.4943 46.3074 25.2417 50.4856C26.991 54.6684 28.4891 58.8263 29.7453 63.0045C31.0004 67.179 32.4939 71.3452 34.1176 75.5234C35.6887 79.5664 36.7463 82.8313 37.4925 83.3634C41.6695 86.3416 40.2486 72.7849 40.8711 67.5635C41.7744 59.9866 41.7486 54.3613 42.4948 49.4737C43.1525 45.1656 43.9985 39.7559 44.6209 34.524C45.3588 28.322 45.4984 21.3322 46.2446 16.0899C46.399 15.0058 46.7434 14.0087 46.4996 13.1323C41.6345 -4.35915 10.2423 11.5466 11.8622 13.2784C15.5892 17.2627 16.9845 23.0014 19.9882 28.9166C23.2206 35.2824 23.9893 40.7365 25.9917 45.2694C27.9259 49.648 29.239 55.3419 31.2415 59.8748C33.1314 64.1531 35.2388 67.527 36.9862 70.1299C37.7794 71.3113 38.2387 72.3885 38.4937 67.068C39.9343 37.0082 39.4986 32.0985 40.1211 27.3935C40.7816 22.4011 41.4936 18.1816 41.9998 14.1756C42.2588 12.126 32.5764 11.9013 21.3231 12.5899C17.7114 12.8108 18.4845 14.6555 19.2382 16.2256C22.1892 22.3728 24.7392 26.4858 26.1192 30.664C28.0579 36.534 31.489 43.1777 33.3676 48.2218C34.1682 50.3712 34.7438 52.9216 35.6175 54.4917C37.1125 57.1782 35.7488 45.6606 34.2564 39.7455C32.4209 32.4707 31.504 27.5708 31.0015 22.5267C30.7564 20.0667 29.254 18.1712 28.6278 17.1228C26.8869 14.208 33.7239 30.9509 37.6125 47.6637C40.1013 58.3604 39.2437 71.3452 39.3749 76.3893C39.4351 78.7047 38.2537 80.7449 37.1325 81.6212C33.4134 84.528 33.0039 68.6328 31.3802 58.0178C29.8838 48.235 30.004 40.4444 29.9965 29.8503C29.9923 23.9105 34.2339 19.5796 37.7362 14.1808C38.5147 12.9808 38.9887 11.9222 39.3674 11.9065C43.1093 11.7519 37.7587 25.4426 36.5025 32.2185C36.0171 34.8366 35.5013 36.9287 34.8788 37.9772C32.5014 41.9816 31.504 24.462 30.754 18.698C30.6108 17.5974 29.269 17.4722 28.3878 17.467C27.5066 17.4618 26.7641 17.8061 26.8766 18.1556C26.9891 18.505 27.9791 18.8493 28.8603 18.8545C29.7415 18.8597 30.484 18.5155 31.9989 18.1608" stroke="#BF0203" stroke-width="10" stroke-linecap="round"/>
<path d="M42.011 115.606C41.5352 115.606 40.3384 115.958 38.6585 117.018C35.648 118.917 36.2432 126.577 36.0017 131.391C35.9537 132.348 36.9498 132.989 37.6743 133C40.8076 133.046 42.2418 126.279 43.2115 122.013C43.4422 120.998 42.9772 119.888 42.4977 118.993C42.0183 118.099 41.3045 117.396 40.4609 117.209C39.6174 117.023 38.6657 117.375 37.9375 118.083C36.5217 119.46 36.2432 124.447 36.6001 129.948C36.7328 131.994 37.6707 132.286 38.7522 132.467C39.8337 132.648 41.2612 132.648 42.2346 132.121C45.8474 130.164 46.0918 122.018 45.98 117.044C45.9266 114.665 43.4602 114.19 41.9029 113.657C41.0725 113.373 40.1077 113.476 39.4984 114.003C37.0398 116.131 37.2093 121.976 37.3211 127.658C37.3447 128.861 38.3917 129.091 39.2353 129.096C40.0788 129.101 41.0305 128.75 41.8777 127.69C44.4119 122.008 45.3708 117.055 44.6607 112.246C44.1812 111.697 43.4674 112.049 42.011 113.476" stroke="#BF0203" stroke-width="10" stroke-linecap="round"/>
</svg>
