<?xml version="1.0" encoding="UTF-8"?>
<svg id="Lag_1" data-name="Lag 1" xmlns="http://www.w3.org/2000/svg" viewBox="0 0 352.54 273.2">
  <defs>
    <style>
      .cls-1 {
        fill: #bf0203;
      }
    </style>
  </defs>
  <path class="cls-1" d="M55.26,113.57c-12.09,1.96-23.15,8.16-31.84,16.69-9.63,9.46-16.2,21.62-19.86,34.56-3.8,13.48-4.65,27.92-2.1,41.71,1.43,7.75,4.07,15.23,6.67,22.65,2.42,6.92,5.11,13.87,9.6,19.74,7.56,9.88,18.88,15.24,30.48,18.89,1.39.44,2.79.86,4.2,1.26.83.24,1.19-1.06.36-1.3-11.39-3.31-22.91-7.62-31.23-16.45-4.91-5.21-8.05-11.58-10.56-18.22-2.65-7.04-5.17-14.23-7.03-21.52-3.45-13.57-3.38-27.96-.31-41.59,2.9-12.92,8.58-25.29,17.38-35.26,8.99-10.19,21.08-17.69,34.6-19.88.85-.14.49-1.43-.36-1.3h0Z"/>
  <path class="cls-1" d="M57.52,113.44c-.43-16.37-.86-33.19,4.62-48.87,2.59-7.41,6.3-14.35,10.38-21.03s8.35-13.19,13.49-19.05,10.89-10.44,17.74-13.8,13.76-5.22,20.95-6.73c14.65-3.07,30.78-4.77,44.33,2.98,12.59,7.2,20.82,20.36,28.19,32.41.97,1.58,1.92,3.16,2.88,4.75.45.74,1.61.07,1.16-.68-7.52-12.49-15.3-25.93-27.2-34.79-6.01-4.47-13.04-7.16-20.44-8.14s-15.32-.32-22.84.95c-14.89,2.52-29.89,6.79-41.16,17.37-5.76,5.41-10.45,11.88-14.74,18.48s-8.41,13.49-11.59,20.76c-3.26,7.46-5.33,15.27-6.34,23.35-1.06,8.51-1.09,17.11-.92,25.67.04,2.13.1,4.25.15,6.38.02.86,1.37.87,1.35,0h0Z"/>
  <path class="cls-1" d="M201.67,45.48c9.39-1.27,19.04-2.57,28.45-.8,8.05,1.51,15.53,5.37,22.16,10.09,11.7,8.32,20.97,19.89,27.32,32.71,3.93,7.94,6.72,16.41,8.37,25.11.16.85,1.46.49,1.3-.36-2.92-15.39-9.47-30.04-19.22-42.31-4.45-5.6-9.57-10.67-15.28-14.99-6.4-4.83-13.67-8.92-21.47-10.92-10.5-2.7-21.41-1.25-31.98.18-.85.12-.49,1.41.36,1.3h0Z"/>
  <path class="cls-1" d="M289.07,115.14c14.82-1.53,29.61,3.17,40.56,13.33,10.47,9.71,16.88,22.99,19.39,36.94,1.49,8.24,1.83,16.64,2.04,24.99s.53,16.82-1.76,24.89-6.4,14.85-10.32,21.76c-3.8,6.71-8.24,12.91-14.22,17.86-12.12,10.04-27.56,13.32-42.82,15.06-2.02.23-4.04.44-6.07.65-.85.09-.86,1.44,0,1.35,15.75-1.65,31.9-3.7,45.35-12.75,6.26-4.21,11.47-9.65,15.59-15.96,2.32-3.56,4.35-7.3,6.36-11.05,1.89-3.54,3.81-7.07,5.37-10.77,3.32-7.89,4.06-16.14,3.99-24.63s-.28-17.41-1.35-26.02c-1.83-14.83-7.22-29.05-17.48-40.14s-24.16-17.21-39.02-17.17c-1.88,0-3.75.12-5.62.31-.85.09-.86,1.43,0,1.35h0Z"/>
  <path class="cls-1" d="M51.8,270.29c29.47-.3,58.94-.6,88.41-.9,14.61-.15,29.23-.45,43.85-.39,14.45.06,28.89.99,43.32,1.71,16.55.83,33.09,1.65,49.64,2.48.87.04.86-1.3,0-1.35-14.73-.74-29.45-1.47-44.18-2.21s-28.91-1.65-43.38-1.92c-14.58-.27-29.18.12-43.76.27s-29.3.3-43.95.45c-16.65.17-33.3.34-49.95.51-.87,0-.87,1.35,0,1.35h0Z"/>
  <path class="cls-1" d="M173.2,94.78c-9.46,17.69-19.51,35.06-30.17,52.05-2.98,4.75-6.01,9.46-9.09,14.15-.48.73.69,1.4,1.16.68,10.94-16.68,21.29-33.76,31.04-51.17,2.79-4.98,5.53-9.99,8.22-15.03.41-.76-.75-1.44-1.16-.68h0Z"/>
  <path class="cls-1" d="M173.18,95.52c11.7,16.73,22.31,34.22,31.82,52.28,2.77,5.27,5.45,10.59,8.05,15.95.38.78,1.54.1,1.16-.68-8.97-18.55-19.03-36.58-30.22-53.89-3.13-4.84-6.35-9.62-9.65-14.34-.49-.7-1.66-.03-1.16.68h0Z"/>
  <path class="cls-1" d="M133.23,163.61c6.19-.24,12.38.04,18.53.83.86.11.85-1.24,0-1.35-6.14-.79-12.34-1.07-18.53-.83-.86.03-.87,1.38,0,1.35h0Z"/>
  <path class="cls-1" d="M214.05,163.46c-6.18.21-12.36.05-18.52-.46-.86-.07-.86,1.27,0,1.35,6.16.51,12.34.67,18.52.46.86-.03.87-1.37,0-1.35h0Z"/>
  <path class="cls-1" d="M151.62,164.17c1.04,17.32,1.46,34.69,1.22,52.04-.07,4.96-.19,9.92-.36,14.87-.03.87,1.32.86,1.35,0,.6-17.35.56-34.72-.12-52.07-.2-4.95-.44-9.9-.74-14.85-.05-.86-1.4-.87-1.35,0h0Z"/>
  <path class="cls-1" d="M195.59,164.16c-.33,17-.66,34-.99,51l-.28,14.68c-.02.87,1.33.87,1.35,0,.33-17,.66-34,.99-51,.09-4.89.19-9.78.28-14.68.02-.87-1.33-.87-1.35,0h0Z"/>
  <path class="cls-1" d="M153.36,232.07c13.74.12,27.47.24,41.21.37.87,0,.87-1.34,0-1.35-13.74-.12-27.47-.24-41.21-.37-.87,0-.87,1.34,0,1.35h0Z"/>
</svg>