<?xml version="1.0" encoding="UTF-8"?>
<svg id="Lag_1" data-name="Lag 1" xmlns="http://www.w3.org/2000/svg" viewBox="0 0 449.65 266.37">
  <defs>
    <style>
      .cls-1 {
        fill: #bf0203;
      }
    </style>
  </defs>
  <path class="cls-1" d="M70.61,110.62c-14.09,1.74-27.74,6.92-39.29,15.21s-20.87,19.82-26.18,33.2-6.73,28.79-3.14,42.97c2.03,8.01,5.63,15.62,9.11,23.08,3.26,6.97,7.11,13.64,12.82,18.91,10.37,9.57,24.34,13.99,37.78,17.2,1.69.4,3.38.79,5.07,1.16.94.21,1.34-1.24.4-1.45-13.2-2.93-26.89-6.46-37.99-14.53-5.92-4.31-10.44-9.89-13.92-16.3-1.87-3.45-3.48-7.04-5.08-10.62-1.73-3.87-3.45-7.74-4.87-11.74-4.9-13.8-4.96-28.81-.67-42.77,4.17-13.58,12.34-25.56,23.27-34.61,10.73-8.88,23.82-14.84,37.49-17.41,1.73-.32,3.46-.59,5.2-.81.95-.12.96-1.62,0-1.5h0Z"/>
  <path class="cls-1" d="M73.17,110.61c-.31-9.05-.61-18.14.42-27.16s3.64-17.59,8.09-25.51,9.6-14.34,15.19-20.88,11.55-12.71,18.53-17.69c14.17-10.1,31.6-13.69,48.51-16.11,17.22-2.46,35.77-3.43,52.05,3.79,14.84,6.58,25.83,19.11,35.77,31.52,1.24,1.55,2.47,3.1,3.69,4.65.6.76,1.65-.31,1.06-1.06-10.06-12.75-20.59-26-35.02-34.04C205.83-.57,187.49-1.01,170.12.97s-35.27,4.98-50.4,13.82c-7.46,4.36-13.93,10.19-19.76,16.52-5.93,6.44-11.58,13.32-16.39,20.64-4.89,7.46-8.57,15.54-10.36,24.31s-1.97,18.27-1.75,27.44c.05,2.3.13,4.61.21,6.91.03.96,1.53.97,1.5,0h0Z"/>
  <path class="cls-1" d="M257,44.5c10.66-1.1,21.41-2.21,32.13-1.31s20,3.96,29.17,8.47c15.06,7.41,28.4,18.63,37.76,32.6,5.22,7.8,9.14,16.41,11.41,25.52.23.94,1.68.54,1.45-.4-4.12-16.56-13.66-31.37-26.18-42.85-6.28-5.76-13.31-10.72-20.84-14.72-8.75-4.65-18.22-8.2-28.06-9.6-12.24-1.74-24.62-.49-36.84.77-.95.1-.96,1.6,0,1.5h0Z"/>
  <path class="cls-1" d="M368.76,112.35c16.97-1.34,34.55,1.94,49.06,11.12,13.12,8.3,23.21,21.13,27.16,36.24,2.31,8.81,2.75,17.97,3.03,27.04.28,9.04.34,18.16-3.76,26.47-1.89,3.83-4.32,7.36-6.76,10.86-2.62,3.75-5.23,7.51-8.14,11.04-5.31,6.45-11.72,11.68-19.08,15.65-15.76,8.49-33.81,10.84-51.4,12.34-2.32.2-4.63.38-6.95.57-.96.08-.96,1.58,0,1.5,18.26-1.46,36.95-3,53.89-10.55,7.64-3.4,14.79-8.02,20.66-14.02,3.13-3.2,5.88-6.75,8.51-10.38s5.34-7.41,7.76-11.26,4.36-7.73,5.47-12.04,1.42-8.95,1.43-13.46c.02-9.19-.31-18.56-1.83-27.63-1.39-8.27-4.16-16.19-8.66-23.29-4.15-6.53-9.51-12.25-15.65-16.94-13.69-10.45-31.04-15.2-48.13-15.05-2.21.02-4.41.12-6.61.3-.96.08-.96,1.58,0,1.5h0Z"/>
  <path class="cls-1" d="M65.97,263.54c18.79-.15,37.59-.29,56.38-.44,18.71-.15,37.42-.29,56.13-.44,18.65-.15,37.31-.43,55.97-.38,18.56.05,37.1.96,55.64,1.67s37.53,1.43,56.3,2.15c2.33.09,4.65.18,6.98.27.97.04.96-1.46,0-1.5-18.77-.72-37.53-1.43-56.3-2.15s-37.13-1.62-55.71-1.88-37.27.12-55.89.27-37.42.29-56.13.44-37.59.29-56.38.44l-6.98.05c-.96,0-.97,1.51,0,1.5h0Z"/>
  <path class="cls-1" d="M220.99,92.37c-12.13,17.33-24.93,34.19-38.36,50.54-3.82,4.65-7.69,9.25-11.62,13.82-.63.73.43,1.79,1.06,1.06,13.87-16.14,27.12-32.82,39.7-49.98,3.56-4.85,7.06-9.75,10.51-14.67.55-.79-.75-1.54-1.3-.76h0Z"/>
  <path class="cls-1" d="M221.08,93.34c14.69,16.03,28.27,33.06,40.6,50.96,3.48,5.06,6.87,10.18,10.15,15.37.52.81,1.81.06,1.3-.76-11.66-18.41-24.58-36.01-38.66-52.64-4.02-4.75-8.13-9.41-12.33-13.99-.65-.71-1.71.35-1.06,1.06h0Z"/>
  <path class="cls-1" d="M169.89,159.58c7.89-.23,15.78.04,23.64.8.96.09.95-1.41,0-1.5-7.86-.77-15.75-1.04-23.64-.8-.96.03-.97,1.53,0,1.5h0Z"/>
  <path class="cls-1" d="M273.02,159.25c-7.88.2-15.77.05-23.64-.45-.96-.06-.96,1.44,0,1.5,7.87.5,15.76.65,23.64.45.96-.02.97-1.52,0-1.5h0Z"/>
  <path class="cls-1" d="M193.46,160.04c1.33,16.84,1.86,33.74,1.56,50.63-.09,4.86-.24,9.72-.46,14.58-.04.97,1.46.96,1.5,0,.76-16.87.72-33.78-.15-50.65-.25-4.85-.57-9.71-.95-14.55-.08-.96-1.58-.96-1.5,0h0Z"/>
  <path class="cls-1" d="M249.58,160.03c-.42,16.62-.84,33.24-1.26,49.85-.12,4.71-.24,9.43-.36,14.14-.02.97,1.48.97,1.5,0,.42-16.62.84-33.24,1.26-49.85.12-4.71.24-9.43.36-14.14.02-.97-1.48-.97-1.5,0h0Z"/>
  <path class="cls-1" d="M195.57,226.29c17.53.12,35.06.24,52.59.36.97,0,.97-1.49,0-1.5-17.53-.12-35.06-.24-52.59-.36-.97,0-.97,1.49,0,1.5h0Z"/>
</svg>